<svg width="161" height="41" viewBox="0 0 161 41" fill="none" xmlns="http://www.w3.org/2000/svg">
<g clip-path="url(#clip0_801_14565)">
<path fill-rule="evenodd" clip-rule="evenodd" d="M28.5082 33.2181C26.1021 35.6242 22.4186 35.6242 15.79 35.6242C9.16275 35.6242 5.47929 35.6229 3.07177 33.2181C0.666992 30.8119 0.666992 27.1271 0.666992 20.4999C0.666992 13.874 0.666992 10.1878 3.07177 7.78301C5.47929 5.37549 9.16275 5.37549 15.79 5.37549C22.4186 5.37549 26.1021 5.37549 28.5082 7.78301C30.9157 10.1892 30.9157 13.8726 30.9157 20.4999C30.9157 27.1271 30.9157 30.8119 28.5082 33.2181ZM17.2365 18.5571L8.10681 18.5392L8.10543 20.7872L16.7222 20.8037L16.2149 23.0477L8.10543 23.0311V25.2778L15.7075 25.2943H15.6951C15.4009 26.4273 16.23 27.5506 17.3684 27.5506H18.9469L19.8186 25.2943H15.7075L16.2149 23.0504L21.3819 23.06L22.1835 20.8133L16.7332 20.8037L17.2433 18.5571L24.6212 18.5214L25.5356 16.2843L17.7534 16.3104L17.2365 18.5571ZM16.4238 14.0555L8.10681 14.0376L8.10543 16.2857L17.752 16.3022L17.8387 15.9103C18.0545 14.9643 17.3643 14.0555 16.4238 14.0555Z" fill="black"/>
<path d="M54.4376 29.244H58.304L58.6779 26.932H59.3811C59.9434 28.6315 61.4657 29.4798 63.0367 29.4798C66.2919 29.4798 68.2843 27.3576 68.2843 22.8299C68.2843 18.8437 66.6435 16.1801 63.1288 16.1801C61.4433 16.1801 59.9434 17.1931 59.3811 18.7014H58.6779L58.9123 15.1643V11.5562H54.4376V29.244ZM58.9123 23.2304V22.4518C58.9123 20.7998 59.8262 19.7869 61.4196 19.7869C62.8023 19.7869 63.7385 20.4008 63.7385 21.9802V23.702C63.7385 24.9996 63.1065 25.8717 61.4419 25.8717C59.7802 25.8717 58.9123 24.8573 58.9123 23.2304ZM69.4549 22.8523C69.4549 26.8386 72.0558 29.4798 76.0141 29.4798C79.2958 29.4798 81.7069 27.7344 82.0364 25.0471H77.7721C77.655 25.7768 76.9057 26.2009 75.8746 26.2009C74.8198 26.2009 73.9519 25.5423 73.9519 24.5503V23.8904H81.8955C82.0364 23.3964 82.0818 22.7114 82.0818 22.0514C82.0818 18.2311 79.3419 16.1787 75.8746 16.1787C72.2665 16.1787 69.4549 18.5841 69.4549 22.8523ZM73.9519 21.2017V20.9435C73.9519 20.0938 74.7486 19.4799 75.8271 19.4799C76.9057 19.4799 77.609 20.0938 77.609 20.9435V21.2017H73.9519ZM92.5144 16.3433C91.0856 16.3433 89.9839 17.1693 89.632 19.2204H88.9292L88.3903 16.4145H82.5093V20.0227H84.4555V29.244H88.93V24.009C88.93 21.3203 90.5936 20.5654 92.4897 20.5654C92.7493 20.5654 93.0072 20.5891 93.2874 20.6128V16.4145C93.0334 16.3629 92.7739 16.3392 92.5144 16.3433ZM94.4766 16.4145V33.1829H98.951V30.4942L98.7162 26.9558H99.4199C99.9819 28.4654 101.482 29.4798 103.169 29.4798C106.682 29.4798 108.323 26.8149 108.323 22.8299C108.323 18.3023 106.331 16.1801 103.074 16.1801C101.505 16.1801 99.9819 17.0284 99.4199 18.7251H98.7162L98.3413 16.4145H94.4766ZM98.951 22.4281C98.951 20.8013 99.8187 19.7882 101.482 19.7882C103.145 19.7882 103.777 20.6603 103.777 21.9565V23.6782C103.777 25.2591 102.841 25.8717 101.459 25.8717C99.8649 25.8717 98.951 24.8573 98.951 23.2067V22.4281ZM113.88 25.7544V11.5562H109.428V25.8256C109.428 27.8767 110.25 29.2454 112.826 29.2454H116.785V25.7558H113.88V25.7544ZM117.609 25.6344C117.609 27.9939 119.318 29.4798 121.942 29.4798C124.12 29.4798 125.644 28.4654 126.137 26.9558H126.767V29.244H131.455V25.9414H129.837V20.8263C129.837 18.0442 128.245 16.1801 124.167 16.1801C120.419 16.1801 118.241 17.8069 118.38 20.9672H122.481C122.41 19.9055 123.043 19.5525 123.957 19.5525C124.823 19.5525 125.384 19.9055 125.384 20.8026V21.6984L121.825 21.9341C119.318 22.1002 117.607 23.2778 117.607 25.6372L117.609 25.6344ZM122.106 25.0233C122.106 24.528 122.458 24.0564 123.255 24.009L125.386 23.8666V25.3526C125.034 25.8954 124.331 26.2483 123.464 26.2483C122.527 26.2483 122.107 25.8479 122.107 25.3051L122.106 25.0233ZM132.811 29.244H137.287V22.3806C137.287 20.8724 138.036 19.8106 139.535 19.8106C140.801 19.8106 141.504 20.5417 141.504 22.1226V29.244H146.001V20.5417C146.001 17.9242 144.573 16.1787 142.019 16.1787C140.051 16.1787 138.645 17.0982 137.989 18.7014H137.287L136.748 16.4145H132.811V29.244ZM147.438 22.8523C147.438 26.8386 150.04 29.4798 154 29.4798C157.279 29.4798 159.693 27.7344 160.021 25.0471H155.757C155.64 25.7768 154.891 26.2009 153.859 26.2009C152.804 26.2009 151.938 25.5423 151.938 24.5503V23.8904H159.881C160.021 23.3964 160.068 22.7114 160.068 22.0514C160.068 18.2311 157.326 16.1787 153.859 16.1787C150.251 16.1787 147.438 18.5841 147.438 22.8523ZM151.938 21.2017V20.9435C151.938 20.0938 152.735 19.4799 153.812 19.4799C154.891 19.4799 155.593 20.0938 155.593 20.9435V21.2017H151.938ZM44.1029 16.4159H52.9335V29.244H48.438V20.0212H44.1029V29.2426H39.6059V20.0212H37.2842V16.4159H39.6059V15.3108C39.6059 15.0122 39.6101 14.7932 39.6171 14.655C39.6254 14.5099 39.6492 14.3299 39.6868 14.1137C39.7315 13.8988 39.8013 13.6686 39.8919 13.423C40.3426 12.177 41.4909 11.5575 43.3354 11.5575H46.9841V15.0457H44.1029V16.4159ZM48.4603 15.0457V11.5562H52.9335V15.0457H48.4603Z" fill="black"/>
</g>
<defs>
<clipPath id="clip0_801_14565">
<rect width="160" height="40" fill="white" transform="translate(0.666992 0.5)"/>
</clipPath>
</defs>
</svg>
