<svg width="140" height="29" viewBox="0 0 140 29" fill="none" xmlns="http://www.w3.org/2000/svg">
<g clip-path="url(#clip0_801_14559)">
<path d="M135.739 5.19262H140V23.7408H135.521L128.857 11.813V23.7408H124.569V5.19262H129.048L135.739 17.2571V5.19262ZM107.69 4.7002C113.835 4.7002 117.468 9.35091 117.468 14.4394C117.468 19.5277 113.808 24.1785 107.69 24.1785C101.518 24.1785 97.8852 19.5277 97.8852 14.4394C97.8852 9.37827 101.545 4.7002 107.69 4.7002ZM113.126 14.4667C113.126 11.43 111.049 8.5849 107.717 8.5849C104.331 8.5849 102.31 11.43 102.31 14.4667C102.31 17.5033 104.358 20.3485 107.717 20.3485C111.049 20.3211 113.126 17.5033 113.126 14.4667ZM38.5369 8.88584V5.19262H51.2095V8.88584H47.0035V23.7134H42.7155V8.88584H38.5369ZM83.9293 12.8526H90.9482V16.2176H83.9566V20.2937H90.9482V23.7408H79.6684V5.19262H90.9482V8.63962H83.9566V12.8526H83.9293ZM65.6301 5.19262C69.7269 5.19262 72.3758 8.28398 72.3758 11.8951C72.3758 14.494 71.0108 16.7921 68.689 17.8863L72.4031 23.7408H67.4327L64.1553 18.5976H62.1342V23.7408H57.8462V5.19262H65.6301ZM68.0336 11.8951C68.0336 10.1716 66.8592 8.69434 65.0839 8.69434H62.1615V15.0959H65.0839C66.8865 15.0959 68.0336 13.6186 68.0336 11.8951ZM30.1522 21.4701H23.5701L22.8599 23.7134H18.2988L24.9083 5.16526H28.8412L35.5326 23.7134H30.8896L30.1522 21.4701ZM26.8748 10.4726L24.6079 18.1052H29.1143L26.8748 10.4726ZM7.75656 5.19262C11.8533 5.19262 14.5025 8.28398 14.5025 11.8951C14.5025 15.5062 11.8533 18.5976 7.75656 18.5976H4.28794V23.7408H0V5.19262H7.75656ZM10.1873 11.8951C10.1873 10.1716 9.01285 8.69434 7.23758 8.69434H4.28794V15.0959H7.21028C9.01285 15.0959 10.1873 13.6186 10.1873 11.8951Z" fill="black"/>
</g>
<defs>
<clipPath id="clip0_801_14559">
<rect width="140" height="28" fill="white" transform="translate(0 0.5)"/>
</clipPath>
</defs>
</svg>
