<svg width="121" height="53" viewBox="0 0 121 53" fill="none" xmlns="http://www.w3.org/2000/svg">
<g clip-path="url(#clip0_801_14572)">
<path d="M0.333008 28.1753C0.333008 19.3755 7.26367 13.1014 17.1202 13.1014C20.0456 13.1014 23.2386 13.6464 25.0297 14.4588V19.9542H24.8292L17.9764 15.0485C17.6228 14.9258 16.8851 14.8465 16.1857 14.8465C11.0015 14.8465 7.34113 19.6761 7.34113 26.3399C7.34113 33.7823 11.9024 39.5778 17.6984 39.5778C18.091 39.5713 18.4822 39.5304 18.8677 39.4557L18.7561 39.4095V27.0518L16.9985 24.9046V24.7045H27.2433V24.9046L25.4857 27.0518V41.4249H25.2856L20.8465 40.0565C19.1337 40.9131 16.4858 41.536 14.1053 41.536C5.93997 41.536 0.333008 36.1181 0.333008 28.1753ZM31.9825 24.4039L29.9133 22.3351V22.1774L37.2778 20.2322H37.667L37.9436 24.4039H38.1769C39.857 21.4448 41.3365 20.2322 43.2052 20.2322C43.984 20.2322 44.6516 20.4659 44.9965 20.7776V27.0849H44.7964L40.8603 24.4366C40.7433 24.412 40.6239 24.4007 40.5043 24.4029C39.6924 24.4029 38.5241 25.1817 38.1349 26.1162V38.8877L40.1922 40.7582V40.9583H30.2249V40.7582L31.9825 38.889V24.4039ZM46.6669 40.9463V40.7904L48.4244 38.877V24.4039L46.3556 22.3794V22.1774L54.1873 20.2304H54.5764V38.8881L56.3344 40.8015V40.9574H46.6669V40.9463ZM48.145 14.0471C48.145 12.1337 49.436 10.9653 51.4937 10.9653C53.5514 10.9653 54.8419 12.1337 54.8419 14.0471C54.8419 15.9162 53.563 17.0841 51.4937 17.0841C49.4245 17.0841 48.145 15.9162 48.145 14.0471ZM59.1934 40.9463V40.7462L60.951 38.877V23.0359H58.1809V22.8801L60.984 20.4659C61.8408 14.8147 65.3118 10.9653 69.5502 10.9653C70.6068 10.9653 71.8554 11.1991 72.3534 11.4771L71.7306 16.5834H71.5302L65.9574 14.125C64.7448 14.2472 63.6978 16.2274 63.6978 18.0186C63.6978 20.3212 65.4558 21.6006 68.4468 21.6006H73.6308C73.9428 15.6068 77.2908 10.9653 81.4626 10.9653C82.4418 10.9653 83.61 11.1991 84.1548 11.4771L83.4876 16.5391H83.2872L78.3384 14.2011C77.2038 14.3122 76.314 15.9918 76.314 17.8278C76.314 20.3175 77.9496 21.6084 81.1092 21.6084H93.024L92.7114 23.8372V38.96L94.4694 40.7955V40.9514H84.78V40.7955L86.571 38.8821V23.0359H79.7514V38.8881L82.0878 40.7582V40.9583H71.8062V40.7582L73.5972 38.8448V23.0359H67.092V38.8881L69.4278 40.7582V40.9583H59.1925L59.1934 40.9463ZM86.304 14.0471C86.304 12.1337 87.5832 10.9653 89.6526 10.9653C91.755 10.9653 93.0456 12.1337 93.0456 14.0471C93.0456 15.9162 91.7544 17.0841 89.6526 17.0841C87.5832 17.0841 86.304 15.9162 86.304 14.0471ZM105.26 38.8881L107.018 40.7582V40.9583H97.3506V40.7582L99.1086 38.889V24.4117L97.0392 22.3429V22.1424L104.404 20.229H104.793L105.07 23.8889H105.337C107.472 21.4305 109.775 20.229 112.345 20.229C115.816 20.229 118.229 22.4882 118.229 25.6801V38.8849L119.987 40.754V40.9541H110.287V40.754L112.078 38.7627V26.9046C112.078 24.9912 110.91 23.8234 109.04 23.8234C107.796 23.8234 106.551 24.3236 105.26 25.3361L105.26 38.8881Z" fill="black"/>
</g>
<defs>
<clipPath id="clip0_801_14572">
<rect width="120" height="52" fill="white" transform="translate(0.333008 0.5)"/>
</clipPath>
</defs>
</svg>
