<svg width="141" height="63" viewBox="0 0 141 63" fill="none" xmlns="http://www.w3.org/2000/svg">
<g clip-path="url(#clip0_801_14561)">
<path d="M74.1162 20.428C74.1162 22.0025 72.8478 23.2709 71.2729 23.2709C69.6985 23.2709 68.4302 22.0025 68.4302 20.428C68.4302 18.8535 69.6548 17.5852 71.2729 17.5852C72.8913 17.6289 74.1162 18.8973 74.1162 20.428ZM62.3946 26.1574C62.3946 26.4199 62.3946 26.8572 62.3946 26.8572C62.3946 26.8572 61.0388 25.1078 58.1522 25.1078C53.3849 25.1078 49.6673 28.7379 49.6673 33.7676C49.6673 38.7535 53.3412 42.4274 58.1522 42.4274C61.0825 42.4274 62.3946 40.6342 62.3946 40.6342V41.3778C62.3946 41.7276 62.657 41.99 63.0069 41.99H66.5495V25.5452C66.5495 25.5452 63.3131 25.5452 63.0069 25.5452C62.657 25.5452 62.3946 25.8513 62.3946 26.1574ZM62.3946 36.6979C61.7386 37.6601 60.4265 38.4911 58.852 38.4911C56.0528 38.4911 53.9098 36.7417 53.9098 33.7676C53.9098 30.7935 56.0528 29.0441 58.852 29.0441C60.3827 29.0441 61.7823 29.9188 62.3946 30.8373V36.6979ZM69.1738 25.5452H73.3722V41.99H69.1738V25.5452ZM131.891 25.1078C129.005 25.1078 127.649 26.8572 127.649 26.8572V17.6289H123.451V41.99C123.451 41.99 126.687 41.99 126.993 41.99C127.343 41.99 127.605 41.6839 127.605 41.3778V40.6342C127.605 40.6342 128.961 42.4274 131.848 42.4274C136.615 42.4274 140.333 38.7535 140.333 33.7676C140.333 28.7817 136.615 25.1078 131.891 25.1078ZM131.192 38.4474C129.574 38.4474 128.305 37.6164 127.649 36.6542V30.7935C128.305 29.9188 129.705 29.0004 131.192 29.0004C133.991 29.0004 136.134 30.7498 136.134 33.7239C136.134 36.6979 133.991 38.4474 131.192 38.4474ZM121.264 32.2368V42.0338H117.065V32.7179C117.065 30.0063 116.19 28.9129 113.829 28.9129C112.56 28.9129 111.248 29.5689 110.417 30.5311V41.99H106.218V25.5452H109.543C109.893 25.5452 110.154 25.8513 110.154 26.1574V26.8572C111.379 25.5889 112.998 25.1078 114.615 25.1078C116.453 25.1078 117.983 25.6327 119.208 26.6823C120.695 27.907 121.264 29.4815 121.264 32.2368ZM96.0276 25.1078C93.1415 25.1078 91.7857 26.8572 91.7857 26.8572V17.6289H87.5871V41.99C87.5871 41.99 90.8232 41.99 91.1291 41.99C91.479 41.99 91.7415 41.6839 91.7415 41.3778V40.6342C91.7415 40.6342 93.0975 42.4274 95.9843 42.4274C100.751 42.4274 104.469 38.7535 104.469 33.7676C104.512 28.7817 100.795 25.1078 96.0276 25.1078ZM95.3283 38.4474C93.7099 38.4474 92.4416 37.6164 91.7857 36.6542V30.7935C92.4416 29.9188 93.8408 29.0004 95.3283 29.0004C98.1269 29.0004 100.27 30.7498 100.27 33.7239C100.27 36.6979 98.1269 38.4474 95.3283 38.4474ZM83.9568 25.1078C85.2253 25.1078 85.8811 25.3265 85.8811 25.3265V29.219C85.8811 29.219 82.3818 28.0381 80.195 30.5311V42.0338H75.9965V25.5452C75.9965 25.5452 79.2332 25.5452 79.5391 25.5452C79.8892 25.5452 80.1516 25.8513 80.1516 26.1574V26.8572C80.9391 25.9388 82.6443 25.1078 83.9568 25.1078ZM40.3515 40.503C40.1328 39.9782 39.9141 39.4096 39.6954 38.9285C39.3456 38.1412 38.9956 37.3977 38.6895 36.6979L38.6458 36.6542C35.6279 30.0938 32.3915 23.4459 28.98 16.8854L28.8489 16.623C28.4989 15.9669 28.1491 15.2671 27.7991 14.5673C27.3618 13.7801 26.9244 12.9491 26.2246 12.1618C24.8251 10.4124 22.8132 9.4502 20.6701 9.4502C18.4833 9.4502 16.5152 10.4124 15.0719 12.0744C14.4158 12.8616 13.9347 13.6926 13.4974 14.4799C13.1475 15.1797 12.7976 15.8794 12.4477 16.5355L12.3165 16.7979C8.94884 23.3584 5.66858 30.0063 2.65077 36.5667L2.60703 36.6542C2.30088 37.354 1.95099 38.0975 1.6011 38.8848C1.38242 39.3659 1.16374 39.8907 0.945055 40.4593C0.376483 42.0775 0.201537 43.6083 0.420219 45.1828C0.901319 48.463 3.08814 51.2184 6.10594 52.443C7.24308 52.9241 8.42398 53.1428 9.64856 53.1428C9.99849 53.1428 10.4358 53.099 10.7857 53.0553C12.229 52.8804 13.716 52.3993 15.1594 51.5683C16.9526 50.5624 18.6583 49.1191 20.5827 47.0197C22.5071 49.1191 24.2565 50.5624 26.0059 51.5683C27.4493 52.3993 28.9363 52.8804 30.3796 53.0553C30.7295 53.099 31.1668 53.1428 31.5168 53.1428C32.7413 53.1428 33.966 52.9241 35.0594 52.443C38.1209 51.2184 40.264 48.4193 40.7451 45.1828C41.095 43.652 40.9201 42.1212 40.3515 40.503ZM20.6264 42.7773C18.2646 39.8032 16.7339 37.0041 16.209 34.6424C15.9903 33.6364 15.9466 32.7617 16.0778 31.9744C16.1653 31.2747 16.4277 30.6623 16.7776 30.1375C17.6086 28.9566 19.0082 28.2131 20.6264 28.2131C22.2446 28.2131 23.688 28.9129 24.4752 30.1375C24.8251 30.6623 25.0875 31.2747 25.175 31.9744C25.3062 32.7617 25.2625 33.6801 25.0438 34.6424C24.5189 36.9603 22.9882 39.7595 20.6264 42.7773ZM38.0772 44.8329C37.7711 47.1072 36.2403 49.0753 34.0972 49.95C33.0475 50.3874 31.9104 50.5186 30.7732 50.3874C29.6798 50.2562 28.5864 49.9063 27.4493 49.2502C25.8748 48.3755 24.3003 47.0197 22.4633 45.0078C25.3499 41.4652 27.0994 38.2287 27.7555 35.3421C28.0616 33.9863 28.1053 32.7617 27.9741 31.6245C27.7991 30.5311 27.4055 29.5251 26.7932 28.6504C25.4374 26.6823 23.1631 25.5452 20.6264 25.5452C18.0897 25.5452 15.8154 26.7261 14.4596 28.6504C13.8473 29.5251 13.4536 30.5311 13.2787 31.6245C13.1038 32.7617 13.1475 34.03 13.4974 35.3421C14.1534 38.2287 15.9466 41.5089 18.7895 45.0516C16.9963 47.0634 15.3781 48.4193 13.8035 49.294C12.6664 49.95 11.573 50.3 10.4796 50.4311C9.2987 50.5624 8.16155 50.3874 7.15561 49.9938C5.01253 49.1191 3.48176 47.1509 3.17561 44.8766C3.0444 43.7832 3.13187 42.6898 3.56923 41.4652C3.70045 41.0278 3.91913 40.5905 4.13781 40.0656C4.44396 39.3659 4.79385 38.6223 5.14374 37.8788L5.18748 37.7914C8.2053 31.2747 11.4417 24.6267 14.8094 18.1537L14.9407 17.8913C15.2906 17.2352 15.6405 16.5355 15.9903 15.8794C16.3403 15.1797 16.7339 14.5236 17.215 13.955C18.1335 12.9054 19.358 12.3368 20.7139 12.3368C22.0697 12.3368 23.2943 12.9054 24.2128 13.955C24.6939 14.5236 25.0875 15.1797 25.4374 15.8794C25.7873 16.5355 26.1372 17.2352 26.4871 17.8913L26.6183 18.1537C29.9423 24.6704 33.1787 31.3183 36.1965 37.8351V37.8788C36.5464 38.5786 36.8526 39.3659 37.2024 40.0656C37.4211 40.5905 37.6398 41.0278 37.7711 41.4652C38.1209 42.6023 38.2522 43.6957 38.0772 44.8329Z" fill="black"/>
</g>
<defs>
<clipPath id="clip0_801_14561">
<rect width="140" height="63" fill="white" transform="translate(0.333008)"/>
</clipPath>
</defs>
</svg>
