<svg width="120" height="61" viewBox="0 0 120 61" fill="none" xmlns="http://www.w3.org/2000/svg">
<path fill-rule="evenodd" clip-rule="evenodd" d="M63.083 22.8519C62.0795 22.0079 60.3668 21.5864 57.944 21.5864H52.4795V38.4737H56.5656V33.181H58.3959C60.6175 33.181 62.2466 32.6921 63.2833 31.7133C64.4511 30.6167 65.0387 29.1566 65.0387 27.3338C65.0387 25.4437 64.3865 23.9494 63.083 22.8519ZM58.2944 29.3598H56.5656V25.4076H58.1187C60.008 25.4076 60.9526 26.0703 60.9526 27.3956C60.9526 28.7038 60.0659 29.3598 58.2944 29.3598ZM72.0308 21.5854H67.77V38.4728H76.9696V34.6506H72.0308V21.5854ZM85.3172 21.5854L78.6245 38.4728H83.2119L84.0891 36.0177H89.9045L90.7066 38.4728H95.3455L88.7 21.5854H85.3172ZM85.2671 32.599L87.0223 26.8269L88.7501 32.599H85.2671Z" fill="black"/>
<path fill-rule="evenodd" clip-rule="evenodd" d="M97.4738 38.4729H101.736V21.5856H97.4738V38.4729ZM118.282 24.7507C117.743 23.9702 117.052 23.3072 116.25 22.8017C114.963 21.991 113.208 21.5865 110.985 21.5865H105.371V38.4729H111.938C114.312 38.4729 116.217 37.6973 117.654 36.1441C119.091 34.5919 119.809 32.5318 119.809 29.9657C119.809 27.9245 119.3 26.1862 118.282 24.7507ZM111.462 34.6498H109.633V25.4087H111.488C112.791 25.4087 113.793 25.8169 114.496 26.6305C115.198 27.4441 115.549 28.5986 115.549 30.0929C115.549 33.1308 114.186 34.6498 111.462 34.6498ZM17.8828 7.40771L4.07237 11.0248L0.266352 24.9131L5.02648 29.8005L0.189453 34.6071L3.77142 48.5562L17.522 52.3982L22.36 47.5906L27.1201 52.477L40.9306 48.86L44.7357 34.9707L39.9765 30.0853L44.8135 25.2786L41.2315 11.3286L27.479 7.48651L22.6429 12.2932L17.8828 7.40771ZM9.40784 13.6963L16.6828 11.79L19.8642 15.0558L15.2246 19.6659L9.40784 13.6963ZM25.3781 15.0995L28.6107 11.8878L35.8543 13.9118L29.9427 19.7856L25.3781 15.0995ZM4.6249 23.7729L6.62901 16.4581L12.4439 22.4277L7.80531 27.0378L4.6249 23.7729ZM32.6758 22.5929L38.5876 16.7172L40.473 24.0653L37.2414 27.278L32.6758 22.5929ZM17.9588 22.4723L22.5983 17.8621L27.1619 22.5482L22.5233 27.1583L17.9588 22.4723ZM10.5404 29.8441L15.179 25.234L19.7455 29.9201L15.105 34.5302L10.5404 29.8441ZM25.2585 29.9647L29.8971 25.3545L34.4616 30.0406L29.822 34.6507L25.2585 29.9647ZM4.52807 35.8195L7.76164 32.6058L12.3252 37.2929L6.41541 43.1656L4.52807 35.8195ZM17.8391 37.3365L22.4787 32.7264L27.0433 37.4125L22.4047 42.0226L17.8391 37.3365ZM32.5562 37.4581L37.1958 32.8479L40.3771 36.1128L38.3739 43.4277L32.5562 37.4581ZM9.14863 45.9739L15.0594 40.0982L19.6258 44.7843L16.3923 47.9979L9.14863 45.9739ZM25.1389 44.8289L29.7775 40.2188L35.5933 46.1893L28.3192 48.0948L25.1389 44.8289Z" fill="black"/>
</svg>
