<svg width="161" height="41" viewBox="0 0 161 41" fill="none" xmlns="http://www.w3.org/2000/svg">
<g clip-path="url(#clip0_801_14576)">
<path d="M44.6657 10.4997L44.6086 10.5187V19.0328H36.5325V10.5187L36.4754 10.4997C35.2754 10.2521 34.0945 10.2521 32.9136 10.4997L32.8564 10.5187V30.0993L32.9136 30.1184C33.504 30.2326 34.0945 30.3088 34.6849 30.3088C35.2754 30.3088 35.8659 30.2516 36.4754 30.1184L36.5325 30.0993V22.1566H44.6086V30.0993L44.6657 30.1184C45.8467 30.366 47.0466 30.366 48.2276 30.1184L48.2847 30.0993V10.5187L48.2276 10.4997C47.0276 10.2711 45.8467 10.2711 44.6657 10.4997ZM57.1798 16.0044C52.9512 16.0044 50.437 18.6709 50.437 23.1471C50.437 25.4708 50.9704 27.3184 52.037 28.5946C53.1989 29.985 54.9322 30.6898 57.2369 30.6898C61.1416 30.6898 63.1416 28.366 63.3892 26.0613V26.0041L63.332 25.9851C62.3416 25.6613 61.4273 25.5851 60.3416 25.7375H60.3035V25.7756C60.0749 27.147 58.9321 27.966 57.275 27.966C54.9512 27.966 53.8084 26.6899 53.7703 24.0613H63.5987V24.0042C63.8844 21.4137 63.3701 19.3185 62.113 17.89C60.9512 16.671 59.256 16.0044 57.1798 16.0044ZM57.1416 18.5376C58.1131 18.5376 58.9321 18.8424 59.4845 19.4328C60.0559 20.0424 60.3416 20.9566 60.2844 22.0423H53.7703C53.8275 19.8138 55.0656 18.5376 57.1416 18.5376ZM65.9796 10.4997L65.9224 10.5187V30.0993L65.9796 30.1184C66.532 30.2326 67.0844 30.3088 67.6558 30.3088C68.2081 30.3088 68.7796 30.2516 69.332 30.1184L69.3891 30.0993V10.5187L69.332 10.4997C68.2272 10.2521 67.1034 10.2711 65.9796 10.4997ZM79.027 16.0044C77.5604 16.0044 76.0175 16.5757 74.5508 17.6614L74.3413 16.6329L74.3032 16.6139C73.4652 16.3662 72.7795 16.3662 71.9604 16.6139L71.9224 16.6329V36.1182L71.9795 36.1373C72.5319 36.2516 73.0842 36.3277 73.6556 36.3277C74.2271 36.3277 74.7794 36.2706 75.3318 36.1373L75.3889 36.1182V29.604C76.5508 30.3469 77.7889 30.6898 79.1793 30.6898C83.0265 30.6898 85.3313 27.966 85.3313 23.3756C85.3129 18.709 83.0265 16.0044 79.027 16.0044ZM75.3318 19.8709C76.3604 19.1662 77.3128 18.8424 78.3412 18.8424C80.6841 18.8424 81.9601 20.4614 81.9601 23.4328C81.9601 26.347 80.7033 27.8898 78.3032 27.8898C77.2746 27.8898 76.3032 27.566 75.3318 26.8803V19.8709ZM100.017 19.5662C99.4265 19.3376 98.8929 19.1472 98.3793 18.9757C95.7121 18.0233 94.1121 17.452 94.0745 16.0044C94.0553 15.3376 94.2649 14.7663 94.7217 14.29C95.3889 13.6044 96.5121 13.2424 97.8841 13.2424C99.2361 13.2424 100.284 13.6044 100.912 14.271C101.446 14.8424 101.675 15.6234 101.617 16.5948V16.652L101.675 16.671C102.836 16.8996 103.998 16.8805 105.255 16.5948L105.312 16.5757V16.5186C105.388 14.8805 104.893 13.452 103.883 12.3854C102.627 11.052 100.607 10.3473 98.0553 10.3283H97.9793C93.2361 10.3283 90.3793 12.4425 90.3409 15.9853C90.3217 19.509 93.5601 20.69 95.5025 21.3756L95.7889 21.49C96.4361 21.7185 97.0457 21.928 97.5793 22.1185C100.207 23.0328 101.788 23.5852 101.846 24.9756C101.865 25.6994 101.655 26.2899 101.217 26.747C100.588 27.3946 99.4841 27.7184 98.0169 27.6993C96.3977 27.6993 95.1601 27.2803 94.4553 26.5184C93.9409 25.947 93.7313 25.2232 93.8073 24.347V24.2899L93.7505 24.2708C92.5697 24.0423 91.3697 24.0613 90.1889 24.328L90.1505 24.347V24.4042C90.0553 25.9851 90.5313 27.3946 91.5601 28.4803C92.9313 29.9469 95.1793 30.7088 98.0745 30.6898C100.912 30.6898 105.579 29.9279 105.617 24.9756C105.56 21.6804 102.741 20.6138 100.017 19.5662ZM114.131 18.8424C116.474 18.8424 117.027 20.3661 117.141 21.2614V21.3185H117.198C118.283 21.49 119.312 21.4137 120.303 21.128L120.359 21.109V21.0519C120.264 19.6804 119.674 18.4424 118.703 17.5472C117.598 16.5376 116.017 15.9853 114.151 15.9853C109.693 15.9853 107.236 18.5948 107.236 23.3376C107.236 28.0612 109.674 30.6707 114.093 30.6707C115.998 30.6707 117.598 30.1184 118.722 29.0708C119.655 28.1946 120.227 27.0136 120.34 25.7375V25.6804L120.283 25.6613C119.35 25.3375 118.322 25.2804 117.198 25.4708H117.159V25.5089C116.855 27.6422 114.779 27.7946 114.151 27.7946C111.751 27.7946 110.627 26.366 110.627 23.2994C110.607 20.2709 111.731 18.8424 114.131 18.8424ZM128.798 16.0044C124.417 16.0044 121.998 18.6138 121.998 23.3566C121.998 28.0803 124.417 30.6898 128.798 30.6898C133.179 30.6898 135.598 28.0803 135.598 23.3566C135.598 18.6138 133.179 16.0044 128.798 16.0044ZM132.283 23.3756C132.283 26.4041 131.14 27.8708 128.798 27.8708C126.455 27.8708 125.312 26.4041 125.312 23.3756C125.312 20.29 126.417 18.8424 128.798 18.8424C131.14 18.8424 132.283 20.328 132.283 23.3756ZM146.569 16.6329L146.511 16.652V26.4041C145.407 27.3565 144.397 27.7756 143.235 27.7756C141.597 27.7756 140.892 26.8422 140.892 24.6328V16.6329L140.835 16.6139C139.731 16.3472 138.607 16.3472 137.483 16.6139L137.426 16.6329V25.4136C137.426 28.7469 139.216 30.6707 142.359 30.6707C144.035 30.6707 145.502 30.0231 147.083 28.5755L147.407 30.0993L147.445 30.1184C148.245 30.3279 149.083 30.3279 149.883 30.1184L149.94 30.0993V16.6329L149.883 16.6139C148.816 16.3472 147.692 16.3472 146.569 16.6329ZM160.492 27.4898L160.473 27.4327L160.416 27.4517C159.083 27.7565 158.302 27.7374 157.845 27.3756C157.463 27.0708 157.292 26.5375 157.292 25.6994V19.4519H159.997L160.016 19.3948C160.207 18.4804 160.207 17.5472 160.016 16.6139L159.997 16.5567H157.292V12.8616L157.235 12.8425C156.131 12.5948 155.007 12.5948 153.902 12.8425L153.845 12.8616L153.863 16.5567H152.15L152.131 16.6139C151.921 17.5281 151.921 18.4804 152.131 19.3948L152.15 19.4519H153.863L153.883 25.4518C153.883 27.128 153.978 28.8232 155.14 29.7945C155.768 30.3088 156.683 30.5755 157.863 30.5755C158.587 30.5755 159.426 30.4803 160.397 30.2898H160.435L160.454 30.2516C160.721 29.3564 160.74 28.4232 160.492 27.4898Z" fill="black"/>
<path d="M2.55267 23.0139L11.8096 13.757C13.0096 12.576 13.7524 10.9189 13.7524 9.10944C13.7524 7.31899 13.0287 5.68093 11.8668 4.5L2.60982 13.757C1.40984 14.9379 0.666992 16.595 0.666992 18.4045C0.666992 20.214 1.39079 21.833 2.55267 23.0139ZM24.9713 17.6045L15.7144 26.8615C14.5144 28.0424 13.7715 29.6995 13.7715 31.509C13.7715 33.2994 14.4953 34.9375 15.6572 36.1185L24.9142 26.8615C26.1141 25.6806 26.857 24.0234 26.857 22.2139C26.857 20.4045 26.1332 18.7854 24.9713 17.6045ZM24.9142 13.776C26.1141 12.5951 26.857 10.938 26.857 9.12848C26.857 7.33804 26.1332 5.69998 24.9713 4.51905L2.60982 26.8615C1.40984 28.0614 0.666992 29.6995 0.666992 31.5281C0.666992 33.3185 1.39079 34.9566 2.55267 36.1375L24.9142 13.776Z" fill="black"/>
</g>
<defs>
<clipPath id="clip0_801_14576">
<rect width="160" height="40" fill="white" transform="translate(0.666992 0.5)"/>
</clipPath>
</defs>
</svg>
