<svg width="43" height="43" viewBox="0 0 43 43" fill="none" xmlns="http://www.w3.org/2000/svg">
<g clip-path="url(#clip0_801_14486)">
<rect width="43" height="43" rx="21.5" fill="url(#paint0_linear_801_14486)"/>
</g>
<rect x="0.807792" y="0.807792" width="41.3844" height="41.3844" rx="20.6922" stroke="white" stroke-opacity="0.2" stroke-width="1.61558"/>
<path fill-rule="evenodd" clip-rule="evenodd" d="M22.75 15C22.75 14.5858 22.4142 14.25 22 14.25C21.5858 14.25 21.25 14.5858 21.25 15V21.25H15C14.5858 21.25 14.25 21.5858 14.25 22C14.25 22.4142 14.5858 22.75 15 22.75H21.25V29C21.25 29.4142 21.5858 29.75 22 29.75C22.4142 29.75 22.75 29.4142 22.75 29V22.75H29C29.4142 22.75 29.75 22.4142 29.75 22C29.75 21.5858 29.4142 21.25 29 21.25H22.75V15Z" fill="white"/>
<defs>
<linearGradient id="paint0_linear_801_14486" x1="25.1025" y1="60.8975" x2="-17.8975" y2="17.8975" gradientUnits="userSpaceOnUse">
<stop stop-color="#FB432C"/>
<stop offset="1" stop-color="#FF591E"/>
</linearGradient>
<clipPath id="clip0_801_14486">
<rect width="43" height="43" rx="21.5" fill="white"/>
</clipPath>
</defs>
</svg>
