<svg width="62" height="61" viewBox="0 0 62 61" fill="none" xmlns="http://www.w3.org/2000/svg">
<rect width="62" height="61" rx="15.8298" fill="url(#paint0_linear_801_14543)"/>
<path fill-rule="evenodd" clip-rule="evenodd" d="M31.6377 13.4533C31.2187 13.3671 30.7866 13.3671 30.3676 13.4533C29.8833 13.5529 29.4504 13.7954 29.1062 13.9881L29.0124 14.0405L17.3487 20.5204C17.3164 20.5383 17.2832 20.5566 17.2492 20.5754C16.8849 20.776 16.4268 21.0283 16.075 21.41C15.7709 21.7401 15.5408 22.1312 15.4 22.5573C15.2371 23.0502 15.239 23.5732 15.2405 23.9891C15.2407 24.0279 15.2408 24.0659 15.2408 24.1028V36.8968C15.2408 36.9337 15.2407 36.9716 15.2405 37.0105C15.239 37.4264 15.2371 37.9493 15.4 38.4422C15.5408 38.8683 15.7709 39.2595 16.075 39.5895C16.4268 39.9712 16.8849 40.2235 17.2492 40.4242C17.2832 40.4429 17.3164 40.4612 17.3487 40.4792L29.0124 46.959L29.1063 47.0114C29.4504 47.2042 29.8833 47.4466 30.3676 47.5462C30.7866 47.6324 31.2187 47.6324 31.6377 47.5462C32.122 47.4466 32.5549 47.2042 32.899 47.0114L32.9928 46.959L44.6566 40.4792C44.6709 40.4712 44.6853 40.4632 44.6999 40.4552C44.7184 40.445 44.7371 40.4347 44.7561 40.4242C45.1204 40.2235 45.5785 39.9712 45.9303 39.5895C46.2344 39.2595 46.4645 38.8683 46.6053 38.4422C46.7682 37.9493 46.7663 37.4264 46.7648 37.0105C46.7646 36.9716 46.7645 36.9337 46.7645 36.8968V24.1028C46.7645 24.0659 46.7646 24.0279 46.7648 23.9891C46.7663 23.5732 46.7682 23.0502 46.6053 22.5573C46.4645 22.1312 46.2344 21.7401 45.9303 21.41C45.5785 21.0283 45.1204 20.776 44.7561 20.5754L44.7548 20.5746C44.7212 20.5561 44.6884 20.5381 44.6566 20.5204L32.9929 14.0405L32.899 13.9881C32.5549 13.7954 32.122 13.5529 31.6377 13.4533ZM30.5434 16.7962C30.7822 16.6635 30.9042 16.5964 30.9951 16.5526L31.0026 16.549L31.0102 16.5526C31.1011 16.5964 31.2231 16.6635 31.4619 16.7962L41.9427 22.6188L31.0026 28.6966L20.0626 22.6189L30.5434 16.7962ZM18.3932 25.2976L29.4264 31.4272L29.4265 43.5828L18.8796 37.7235C18.6275 37.5834 18.4988 37.5112 18.4085 37.4536L18.4008 37.4487L18.4003 37.4397C18.3938 37.3328 18.3932 37.1852 18.3932 36.8968V25.2976Z" fill="white"/>
<defs>
<linearGradient id="paint0_linear_801_14543" x1="36.1944" y1="86.3894" x2="-24.7976" y2="24.3976" gradientUnits="userSpaceOnUse">
<stop stop-color="#FB432C"/>
<stop offset="1" stop-color="#FF591E"/>
</linearGradient>
</defs>
</svg>
