<svg width="14" height="14" viewBox="0 0 14 14" fill="none" xmlns="http://www.w3.org/2000/svg">
<path fill-rule="evenodd" clip-rule="evenodd" d="M7.37539 0.322726C7.2078 0.288258 7.03494 0.288258 6.86735 0.322726C6.67362 0.36257 6.50047 0.459554 6.36281 0.536657L6.32529 0.557618L1.65979 3.14956C1.64689 3.15673 1.6336 3.16405 1.61998 3.17155C1.47426 3.25182 1.29103 3.35274 1.15033 3.50542C1.02868 3.63743 0.936614 3.79389 0.880297 3.96434C0.815159 4.16149 0.815921 4.37067 0.816527 4.53703C0.816583 4.55258 0.816639 4.56775 0.816639 4.58251V9.70013C0.816639 9.71488 0.816583 9.73006 0.816527 9.7456C0.815921 9.91197 0.815159 10.1211 0.880297 10.3183C0.936614 10.4887 1.02868 10.6452 1.15033 10.7772C1.29103 10.9299 1.47426 11.0308 1.61998 11.1111C1.6336 11.1186 1.64689 11.1259 1.65979 11.1331L6.32529 13.725L6.36282 13.746C6.50048 13.8231 6.67363 13.9201 6.86735 13.9599C7.03494 13.9944 7.2078 13.9944 7.37539 13.9599C7.56912 13.9201 7.74227 13.8231 7.87993 13.746L7.91745 13.725L12.583 11.1331C12.5887 11.1299 12.5944 11.1267 12.6003 11.1235C12.6077 11.1194 12.6152 11.1153 12.6228 11.1111C12.7685 11.0308 12.9517 10.9299 13.0924 10.7772C13.2141 10.6452 13.3061 10.4887 13.3624 10.3183C13.4276 10.1211 13.4268 9.91197 13.4262 9.7456C13.4262 9.73005 13.4261 9.71488 13.4261 9.70013V4.58251C13.4261 4.56775 13.4262 4.55258 13.4262 4.53703C13.4268 4.37067 13.4276 4.16149 13.3624 3.96434C13.3061 3.79389 13.2141 3.63743 13.0924 3.50542C12.9517 3.35273 12.7685 3.25181 12.6228 3.17155L12.6222 3.17127C12.6088 3.16386 12.5957 3.15664 12.583 3.14956L7.91745 0.557618L7.87993 0.536655C7.74227 0.459552 7.56912 0.36257 7.37539 0.322726ZM6.93766 1.65988C7.0332 1.6068 7.08197 1.57998 7.11836 1.56244L7.12137 1.56099L7.12438 1.56244C7.16077 1.57998 7.20954 1.6068 7.30508 1.65988L11.4974 3.98894L7.12135 6.42006L2.74534 3.98895L6.93766 1.65988ZM2.07759 5.06044L6.49088 7.51227L6.49089 12.3745L2.27216 10.0308C2.17131 9.97478 2.11982 9.94588 2.0837 9.92286L2.08065 9.92091L2.08042 9.91729C2.07785 9.87454 2.07759 9.81549 2.07759 9.70013V5.06044Z" fill="white"/>
</svg>
