<svg width="172" height="181" viewBox="0 0 172 181" fill="none" xmlns="http://www.w3.org/2000/svg">
<path fill-rule="evenodd" clip-rule="evenodd" d="M5.60644e-05 1.21517C-0.000483242 1.21424 -0.000763666 1.21355 0.183981 1.09406C0.368748 0.974577 0.36894 0.974808 0.369393 0.975734L0.371486 0.979441L0.380028 0.994493C0.387686 1.00815 0.399184 1.02853 0.414565 1.05539C0.445328 1.10958 0.491514 1.19016 0.553102 1.29691C0.676237 1.51041 0.860876 1.82741 1.10643 2.24144C1.59753 3.06904 2.3322 4.28357 3.30582 5.82993C5.25309 8.92242 8.15589 13.3415 11.9766 18.6452C19.6182 29.2525 30.9303 43.3956 45.6115 57.5384C74.9761 85.8258 117.802 114.096 171.683 114.096V114.559C117.655 114.559 74.731 86.212 45.3233 57.8829C30.6186 43.7174 19.2889 29.5524 11.6353 18.9284C7.80838 13.6164 4.90019 9.18918 2.94837 6.08928C1.97247 4.53921 1.23561 3.32121 0.742509 2.49014C0.49596 2.07472 0.310372 1.75586 0.186289 1.54074C0.124268 1.4333 0.0776078 1.35179 0.0463927 1.29691C0.030796 1.26936 0.0190605 1.24874 0.0112082 1.23485L0.00232073 1.2191L5.60644e-05 1.21517ZM0.0205928 35.2847C0.0200534 35.284 0.0197515 35.2838 0.183981 35.1335C0.34819 34.9834 0.348362 34.9837 0.348794 34.9841L0.350863 34.9867L0.359341 34.9973L0.374333 35.0161L0.393748 35.0402C0.406864 35.0566 0.422785 35.0763 0.441531 35.0994L0.471495 35.1365C0.48968 35.159 0.50985 35.1837 0.532005 35.2108C0.654967 35.3616 0.839431 35.5857 1.08479 35.8784C1.57552 36.4636 2.30983 37.3227 3.28309 38.4163C5.22957 40.6036 8.13162 43.7297 11.9516 47.4814C19.5916 54.9852 30.9025 64.9916 45.583 74.998C74.9446 95.0111 117.78 115.022 171.683 115.022V115.485C117.677 115.485 74.7625 95.4358 45.3518 75.3889C30.6464 65.3656 19.3155 55.3418 11.6603 47.823C7.83263 44.0636 4.92368 40.9304 2.97109 38.7361C1.9948 37.639 1.25759 36.7766 0.764122 36.1882C0.5174 35.8939 0.331599 35.6682 0.207365 35.5158C0.145215 35.4396 0.0984902 35.3817 0.0671888 35.3428C0.0515489 35.3234 0.0397705 35.3088 0.0318535 35.2988L0.022901 35.2877L0.0205928 35.2847ZM0.183981 58.7527C0.045099 58.9298 0.0454008 58.9303 0.0459617 58.9307L0.0482699 58.9328L0.0572651 58.9409L0.080585 58.9618L0.0926868 58.9724C0.124031 59.0004 0.170822 59.0419 0.233016 59.0965C0.357358 59.2058 0.543246 59.3677 0.790097 59.5789C1.28374 60.0008 2.02116 60.619 2.99762 61.4054C4.95056 62.9784 7.85977 65.2245 11.6876 67.9192C19.3433 73.3088 30.6738 80.4932 45.3781 87.6769C74.7869 102.045 117.692 116.411 171.683 116.411V115.948C117.765 115.948 74.9202 101.601 45.5569 87.2555C30.8751 80.0826 19.5638 72.91 11.9242 67.5321C8.10446 64.8429 5.20269 62.6026 3.25655 61.0352C2.28349 60.2513 1.54935 59.6358 1.05882 59.2165C0.813566 59.0069 0.629212 58.8462 0.506358 58.7383C0.479996 58.7151 0.456459 58.6943 0.435771 58.676C0.408245 58.6517 0.385745 58.6318 0.368271 58.616C0.352955 58.6026 0.3415 58.5922 0.33395 58.5855L0.325494 58.5778L0.323446 58.576C0.323446 58.576 0.323209 58.5758 0.318938 58.5811C0.31691 58.5836 0.313933 58.5873 0.309554 58.5929C0.301464 58.6031 0.288629 58.6193 0.268135 58.6455L0.183981 58.7527ZM0.091738 84.6652C0.091738 84.6652 0.0916086 84.6652 0.091738 84.6648C0.0918675 84.6643 0.092212 84.6634 0.0930101 84.6613C0.0946065 84.6573 0.0980373 84.6495 0.105199 84.6333C0.117409 84.6055 0.140513 84.5534 0.183981 84.4559C0.226048 84.3614 0.24913 84.3098 0.261858 84.2815C0.26779 84.2683 0.271457 84.2602 0.273766 84.2551C0.275988 84.2503 0.276891 84.2484 0.277301 84.2477C0.27756 84.2473 0.27767 84.2473 0.27767 84.2473L0.279717 84.2484L0.288195 84.2528L0.322562 84.2702C0.353195 84.2857 0.399271 84.3088 0.46073 84.3396C0.583649 84.401 0.768092 84.4925 1.01343 84.6117C1.50412 84.85 2.23845 85.2001 3.21175 85.6459C5.15832 86.5374 8.06074 87.8114 11.8813 89.3404C19.5224 92.3989 30.8362 96.4776 45.5216 100.557C74.8922 108.715 117.749 116.874 171.683 116.874V117.337C117.708 117.337 74.8149 109.172 45.4135 101.005C30.7126 96.9217 19.3846 92.8379 11.7306 89.7744C7.90352 88.2426 4.99493 86.966 3.04243 86.0719C2.0662 85.6248 1.32899 85.2733 0.835485 85.0336C0.588742 84.9137 0.402916 84.8215 0.278617 84.7595C0.216489 84.7284 0.169722 84.7048 0.138399 84.6891L0.10302 84.671L0.0940463 84.6664L0.091738 84.6652ZM0.183981 105.065C0.154686 105.23 0.146834 105.275 0.144957 105.288C0.144245 105.292 0.144503 105.292 0.144503 105.292L0.146747 105.293L0.155591 105.295L0.190733 105.302C0.221884 105.308 0.268478 105.317 0.330455 105.33L0.388528 105.341L0.460018 105.355C0.499474 105.363 0.542642 105.372 0.589475 105.381C0.675937 105.398 0.774889 105.417 0.886288 105.438C1.37906 105.533 2.11558 105.673 3.09105 105.85C5.04202 106.205 7.94901 106.712 11.7743 107.32C19.425 108.536 30.7491 110.157 45.4454 111.779C74.8382 115.021 117.72 118.264 171.683 118.264V117.801C117.736 117.801 74.8691 114.559 45.4896 111.318C30.7998 109.698 19.4821 108.077 11.8375 106.862C8.01524 106.254 5.11123 105.748 3.16312 105.394C2.18907 105.216 1.454 105.077 0.96263 104.983C0.716944 104.935 0.532156 104.899 0.408914 104.874C0.347282 104.862 0.301033 104.853 0.270206 104.847L0.235604 104.84L0.227016 104.838L0.224902 104.837C0.224902 104.837 0.224665 104.837 0.22378 104.842C0.222939 104.846 0.221388 104.855 0.218433 104.871L0.211874 104.908C0.205877 104.941 0.197011 104.991 0.183981 105.065ZM0.186332 117.569C0.185836 117.569 0.185599 117.569 0.183981 117.801C0.182342 118.032 0.182601 118.032 0.183075 118.032H0.185253H0.188877L0.193969 118.032H0.200527H0.208508H0.217956L0.22885 118.033H0.241189L0.254974 118.033H0.270206L0.286879 118.033H0.305024L0.324588 118.033L0.345601 118.034L0.368056 118.034H0.39196L0.417284 118.034L0.444055 118.034L0.472273 118.034L0.501957 118.035L0.533042 118.035L0.565571 118.035L0.599528 118.036L0.634926 118.036L0.67175 118.036L0.710043 118.037L0.749734 118.037L0.790872 118.037L0.833412 118.037L0.877398 118.038L0.922831 118.038L0.969684 118.039L1.01794 118.039L1.06764 118.039L1.11877 118.04L1.17132 118.04L1.2253 118.041L1.28069 118.041L1.33751 118.042L1.39576 118.042L1.45541 118.043L1.5165 118.043L1.57899 118.044L1.64291 118.044L1.70823 118.044L1.77498 118.045L1.84315 118.046L1.91272 118.046L1.98371 118.047L2.05611 118.047L2.12993 118.048L2.20514 118.049L2.28177 118.049L2.35982 118.05L2.43927 118.05L2.52012 118.051L2.6024 118.052L2.68607 118.053L2.77113 118.053L2.85762 118.054L2.9455 118.055L3.03479 118.055L3.12546 118.056L3.21755 118.057L3.31102 118.058L3.40592 118.058L3.5022 118.059L3.59987 118.06L3.69896 118.061L3.79942 118.062L3.90128 118.062L4.00453 118.063L4.10917 118.064L4.21522 118.065L4.32265 118.066L4.43149 118.067L4.54168 118.068L4.65329 118.069L4.76626 118.069L4.88064 118.07L4.9964 118.071L5.11353 118.072L5.23207 118.073L5.35197 118.074L5.47327 118.075L5.59595 118.076L5.72 118.077L5.84544 118.078L5.97226 118.079L6.10044 118.08L6.23001 118.081L6.36095 118.082L6.49327 118.083L6.62698 118.085L6.76204 118.085L6.89849 118.087L7.03629 118.088L7.17548 118.089L7.31602 118.09L7.45794 118.091L7.60125 118.092L7.74589 118.094L7.89191 118.095L8.03931 118.096L8.18806 118.097L8.3382 118.098L8.48968 118.1L8.64252 118.101L8.79672 118.102L8.9523 118.103L9.10921 118.104L9.26751 118.106L9.42714 118.107L9.58816 118.108L9.75051 118.11L9.91422 118.111L10.0793 118.112L10.2457 118.114L10.4135 118.115L10.5826 118.116L10.7531 118.118L10.9249 118.119L11.0981 118.121L11.2726 118.122L11.4485 118.123L11.6257 118.125L11.8043 118.126L11.9842 118.128L12.1655 118.129L12.3481 118.131L12.532 118.132L12.7173 118.134L12.9039 118.135L13.0919 118.137L13.2812 118.138L13.4718 118.14L13.6638 118.141L13.8571 118.143L14.0518 118.144L14.2478 118.146L14.4451 118.148L14.6438 118.149L14.8437 118.151L15.0451 118.153L15.2477 118.154L15.4517 118.156L15.657 118.158L15.8636 118.159L16.0716 118.161L16.2809 118.163L16.4915 118.164L16.7034 118.166L16.9167 118.168L17.1313 118.169L17.3472 118.171L17.5644 118.173L17.783 118.175L18.0028 118.177L18.224 118.178L18.4465 118.18L18.6704 118.182L18.8955 118.184L19.122 118.186L19.3497 118.188L19.5788 118.189L19.8092 118.191L20.0409 118.193L20.2739 118.195L20.5082 118.197L20.7439 118.199L20.9808 118.201L21.2191 118.203L21.4586 118.204L21.6995 118.207L21.9416 118.208L22.1851 118.21L22.43 118.212L22.6759 118.214L22.9233 118.216L23.1721 118.218L23.4221 118.22L23.6732 118.223L23.9258 118.225L24.1797 118.227L24.4349 118.229L24.6914 118.231L24.9492 118.233L25.208 118.235L25.4684 118.237L25.7301 118.239L25.9931 118.241L26.2573 118.243L26.5227 118.246L26.7895 118.248L27.0576 118.25L27.3271 118.252L27.5976 118.254L27.8696 118.257L28.1427 118.259L28.4173 118.261L28.693 118.263L28.9702 118.265L29.2485 118.268L29.5281 118.27L29.809 118.272L30.0911 118.275L30.3746 118.277L30.6594 118.279L30.9454 118.281L31.2327 118.284L31.5212 118.286L31.8111 118.289L32.1021 118.291L32.3946 118.293L32.6882 118.295L32.9831 118.298L33.2793 118.3L33.5768 118.303L33.8756 118.305L34.1754 118.307L34.4768 118.31L34.7792 118.313L35.083 118.315L35.388 118.317L35.6943 118.32L36.0019 118.322L36.3108 118.325L36.6208 118.327L36.9321 118.33L37.2447 118.333L37.5586 118.335L37.8738 118.338L38.19 118.34L38.5078 118.343L38.8266 118.345L39.1467 118.348L39.4682 118.351L39.7907 118.353L40.1147 118.356L40.4398 118.358L40.7662 118.361L41.0936 118.364L41.4226 118.366L41.7527 118.369L42.084 118.372L42.4167 118.374L42.7504 118.377L43.0856 118.38L43.4219 118.383L43.7595 118.385L44.0982 118.388L44.4382 118.391L44.7795 118.393L45.122 118.396L45.4659 118.399L45.8108 118.402L46.1571 118.405L46.5046 118.408L46.8532 118.41L47.2031 118.413L47.5543 118.416L47.9066 118.419L48.2602 118.422L48.615 118.425L48.9712 118.427L49.3284 118.43L49.6869 118.433L50.0468 118.436L50.4077 118.439L50.7699 118.442L51.1331 118.445L51.4979 118.448L51.8636 118.451L52.2307 118.454L52.599 118.457L52.9685 118.46L53.3393 118.463L53.7112 118.466L54.0844 118.469L54.4587 118.472L54.8343 118.475L55.2112 118.478L55.5891 118.481L55.9683 118.484L56.3487 118.487L56.7303 118.49L57.1132 118.493L57.4972 118.496L57.8825 118.5L58.269 118.503L58.6567 118.506L59.0454 118.509L59.4357 118.512L59.8268 118.515L60.2194 118.519L60.6131 118.522L61.0078 118.525L61.4039 118.528L61.8013 118.531L62.1997 118.535L62.5994 118.538L63.0003 118.541L63.4024 118.544L63.8055 118.548L64.21 118.551L64.6156 118.554L65.0224 118.558L65.4304 118.561L65.8396 118.564L66.2501 118.568L66.6617 118.571L67.0744 118.574L67.4884 118.577L67.9034 118.581L68.3198 118.584L68.7374 118.588L69.1559 118.591L69.5759 118.594L69.997 118.598L70.4192 118.601L70.8426 118.605L71.2672 118.608L71.693 118.612L72.1199 118.615L72.5479 118.618L72.9772 118.622L73.4078 118.625L73.8395 118.629L74.2722 118.632L74.7062 118.636L75.1413 118.64L75.5775 118.643L76.015 118.646L76.4538 118.65L76.8936 118.654L77.3346 118.657L77.7768 118.661L78.2201 118.664L78.6645 118.668L79.1102 118.672L79.557 118.675L80.005 118.679L80.4541 118.682L80.9044 118.686L81.3559 118.69L81.8084 118.694L82.2621 118.697L82.7171 118.701L83.1731 118.705L83.6304 118.708L84.0889 118.712L84.5483 118.716L85.0089 118.719L85.4708 118.723L85.9337 118.727L86.398 118.731L86.8633 118.734L87.3297 118.738L87.7971 118.742L88.2659 118.746L88.7357 118.75L89.2067 118.753L89.6789 118.757L90.1522 118.761L90.6265 118.765L91.1022 118.769L91.579 118.773L92.0568 118.776L92.5357 118.78L93.0159 118.784L93.4972 118.788L93.9795 118.792L94.463 118.796L94.9477 118.8L95.4335 118.804L95.9204 118.808L96.4086 118.812L96.8976 118.816L97.3879 118.82L97.8793 118.824L98.3721 118.828L98.8656 118.832L99.3605 118.836L99.8565 118.84L100.353 118.844L100.852 118.848L101.351 118.852L101.851 118.856L102.353 118.86L102.856 118.864L103.36 118.868L103.864 118.872L104.37 118.876L104.878 118.88L105.386 118.885L105.895 118.889L106.406 118.893L106.917 118.897L107.43 118.901L107.944 118.905L108.459 118.909L108.975 118.913L109.492 118.918L110.01 118.922L110.53 118.926L111.05 118.93L111.572 118.935L112.094 118.939L112.618 118.943L113.143 118.947L113.669 118.952L114.196 118.956L114.724 118.96L115.253 118.964L115.784 118.969L116.315 118.973L116.848 118.977L117.382 118.982L117.916 118.986L118.452 118.99L118.989 118.995L119.527 118.999L120.066 119.003L120.607 119.008L121.148 119.012L121.69 119.017L122.234 119.021L122.778 119.025L123.324 119.03L123.871 119.034L124.419 119.039L124.968 119.043L125.518 119.048L126.069 119.052L126.621 119.057L127.174 119.061L127.728 119.065L128.284 119.07L128.84 119.074L129.398 119.079L129.956 119.083L130.516 119.088L131.077 119.093L131.639 119.097L132.202 119.102L132.766 119.106L133.331 119.111L133.897 119.115L134.464 119.12L135.032 119.125L135.602 119.129L136.172 119.134L136.743 119.139L137.316 119.143L137.89 119.148L138.464 119.152L139.04 119.157L139.617 119.162L140.195 119.167L140.774 119.171L141.353 119.176L141.934 119.18L142.517 119.185L143.1 119.19L143.684 119.195L144.269 119.199L144.855 119.204L145.443 119.209L146.031 119.214L146.621 119.218L147.211 119.223L147.803 119.228L148.395 119.233L148.989 119.238L149.584 119.243L150.179 119.247L150.776 119.252L151.374 119.257L151.973 119.262L152.573 119.267L153.174 119.272L153.776 119.277L154.379 119.281L154.983 119.286L155.588 119.291L156.194 119.296L156.801 119.301L157.409 119.306L158.018 119.311L158.629 119.316L159.24 119.321L159.852 119.326L160.466 119.331L161.08 119.336L161.696 119.341L162.312 119.346L162.93 119.351L163.548 119.356L164.168 119.361L164.788 119.366L165.41 119.371L166.032 119.376L166.656 119.381L167.281 119.386L167.906 119.391L168.533 119.396L169.161 119.401L169.789 119.406L170.419 119.411L171.05 119.416L171.682 119.422L171.685 118.958L171.053 118.953L170.423 118.948L169.793 118.943L169.164 118.938L168.536 118.933L167.91 118.928L167.284 118.923L166.659 118.918L166.036 118.913L165.413 118.908L164.792 118.903L164.171 118.898L163.551 118.893L162.933 118.888L162.315 118.882L161.699 118.878L161.083 118.873L160.469 118.868L159.856 118.863L159.243 118.858L158.632 118.853L158.022 118.848L157.413 118.843L156.804 118.838L156.197 118.833L155.591 118.828L154.986 118.823L154.382 118.818L153.779 118.813L153.177 118.809L152.576 118.804L151.976 118.799L151.377 118.794L150.779 118.789L150.183 118.784L149.587 118.779L148.992 118.775L148.399 118.77L147.806 118.765L147.214 118.76L146.624 118.755L146.034 118.751L145.446 118.746L144.859 118.741L144.272 118.736L143.687 118.732L143.103 118.727L142.52 118.722L141.938 118.717L141.357 118.713L140.777 118.708L140.198 118.703L139.62 118.699L139.043 118.694L138.468 118.689L137.893 118.685L137.319 118.68L136.747 118.675L136.175 118.671L135.605 118.666L135.036 118.662L134.467 118.657L133.9 118.652L133.334 118.648L132.769 118.643L132.205 118.639L131.642 118.634L131.08 118.63L130.519 118.625L129.96 118.62L129.401 118.616L128.844 118.611L128.287 118.607L127.732 118.602L127.177 118.598L126.624 118.593L126.072 118.589L125.521 118.584L124.971 118.58L124.422 118.576L123.874 118.571L123.327 118.567L122.782 118.562L122.237 118.558L121.694 118.553L121.151 118.549L120.61 118.545L120.07 118.54L119.531 118.536L118.992 118.532L118.455 118.527L117.92 118.523L117.385 118.518L116.851 118.514L116.319 118.51L115.787 118.506L115.257 118.501L114.728 118.497L114.199 118.493L113.672 118.489L113.146 118.484L112.621 118.48L112.098 118.476L111.575 118.471L111.053 118.467L110.533 118.463L110.014 118.459L109.495 118.455L108.978 118.45L108.462 118.446L107.947 118.442L107.433 118.438L106.921 118.434L106.409 118.43L105.898 118.426L105.389 118.421L104.881 118.417L104.374 118.413L103.868 118.409L103.363 118.405L102.859 118.401L102.356 118.397L101.855 118.393L101.354 118.389L100.855 118.385L100.357 118.381L99.8597 118.377L99.3637 118.373L98.8689 118.369L98.3753 118.364L97.8826 118.361L97.3912 118.357L96.9008 118.353L96.4118 118.349L95.9236 118.345L95.4367 118.341L94.9509 118.337L94.4662 118.333L93.9827 118.329L93.5004 118.325L93.0191 118.321L92.5389 118.317L92.06 118.313L91.5822 118.31L91.1054 118.306L90.6298 118.302L90.1554 118.298L89.6821 118.294L89.2101 118.29L88.739 118.286L88.2691 118.283L87.8004 118.279L87.3329 118.275L86.8665 118.271L86.4012 118.267L85.937 118.264L85.474 118.26L85.0122 118.256L84.5516 118.253L84.0921 118.249L83.6337 118.245L83.1763 118.242L82.7203 118.238L82.2654 118.234L81.8117 118.23L81.3591 118.227L80.9076 118.223L80.4574 118.219L80.0082 118.216L79.5602 118.212L79.1134 118.209L78.6677 118.205L78.2234 118.201L77.7801 118.198L77.3378 118.194L76.8969 118.191L76.457 118.187L76.0185 118.183L75.581 118.18L75.1446 118.176L74.7095 118.173L74.2754 118.169L73.8427 118.166L73.411 118.162L72.9804 118.159L72.5512 118.155L72.1232 118.152L71.6963 118.148L71.2704 118.145L70.8459 118.141L70.4224 118.138L70.0002 118.135L69.5791 118.131L69.1593 118.128L68.7406 118.125L68.323 118.121L67.9066 118.118L67.4916 118.114L67.0776 118.111L66.665 118.108L66.2533 118.104L65.8428 118.101L65.4336 118.098L65.0257 118.094L64.6188 118.091L64.2133 118.088L63.8088 118.085L63.4056 118.081L63.0035 118.078L62.6027 118.075L62.2029 118.072L61.8045 118.068L61.4071 118.065L61.0111 118.062L60.6163 118.059L60.2226 118.056L59.8302 118.052L59.4389 118.049L59.0489 118.046L58.6599 118.043L58.2723 118.04L57.8857 118.037L57.5004 118.033L57.1164 118.03L56.7337 118.027L56.3519 118.024L55.9716 118.021L55.5923 118.018L55.2144 118.015L54.8375 118.012L54.462 118.009L54.0877 118.006L53.7145 118.003L53.3426 118L52.9717 117.997L52.6022 117.994L52.234 117.991L51.867 117.988L51.5012 117.985L51.1364 117.982L50.7731 117.979L50.4109 117.976L50.05 117.973L49.6902 117.97L49.3316 117.967L48.9744 117.964L48.6183 117.962L48.2634 117.959L47.9098 117.956L47.5575 117.953L47.2063 117.95L46.8564 117.947L46.5078 117.944L46.1603 117.942L45.8141 117.939L45.4691 117.936L45.1253 117.933L44.7829 117.93L44.4417 117.928L44.1015 117.925L43.7628 117.922L43.4252 117.919L43.0889 117.917L42.7538 117.914L42.4199 117.911L42.0873 117.909L41.7559 117.906L41.4258 117.903L41.0969 117.9L40.7694 117.898L40.443 117.895L40.1179 117.893L39.7939 117.89L39.4714 117.887L39.15 117.885L38.8298 117.882L38.511 117.88L38.1935 117.877L37.877 117.874L37.5618 117.872L37.248 117.869L36.9354 117.867L36.6241 117.864L36.3141 117.862L36.0052 117.859L35.6976 117.857L35.3912 117.854L35.0862 117.852L34.7825 117.849L34.48 117.847L34.1786 117.844L33.8788 117.842L33.58 117.84L33.2825 117.837L32.9864 117.835L32.6915 117.832L32.3979 117.83L32.1056 117.828L31.8143 117.825L31.5246 117.823L31.236 117.821L30.9486 117.818L30.6626 117.816L30.3778 117.814L30.0944 117.811L29.8122 117.809L29.5313 117.807L29.2518 117.805L28.9735 117.802L28.6963 117.8L28.4206 117.798L28.146 117.796L27.8729 117.793L27.6008 117.791L27.3303 117.789L27.0609 117.787L26.7927 117.785L26.5261 117.783L26.2606 117.78L25.9963 117.778L25.7333 117.776L25.4717 117.774L25.2115 117.772L24.9524 117.77L24.6946 117.768L24.4381 117.766L24.1829 117.764L23.929 117.761L23.6764 117.759L23.4253 117.757L23.1753 117.755L22.9266 117.753L22.6791 117.751L22.4332 117.749L22.1884 117.747L21.9448 117.745L21.7028 117.743L21.4619 117.742L21.2223 117.739L20.9841 117.738L20.7471 117.736L20.5115 117.734L20.2772 117.732L20.0441 117.73L19.8125 117.728L19.582 117.726L19.353 117.724L19.1252 117.723L18.8987 117.721L18.6736 117.719L18.4498 117.717L18.2273 117.715L18.0061 117.714L17.7862 117.712L17.5677 117.71L17.3505 117.708L17.1345 117.706L16.92 117.705L16.7067 117.703L16.4948 117.701L16.2841 117.699L16.0749 117.698L15.8669 117.696L15.6603 117.695L15.4549 117.693L15.251 117.691L15.0483 117.689L14.847 117.688L14.647 117.686L14.4483 117.685L14.251 117.683L14.0551 117.681L13.8604 117.68L13.6671 117.678L13.4751 117.677L13.2845 117.675L13.0952 117.674L12.9072 117.672L12.7205 117.671L12.5353 117.669L12.3513 117.668L12.1687 117.666L11.9875 117.665L11.8076 117.663L11.629 117.662L11.4517 117.66L11.2759 117.659L11.1014 117.658L10.9282 117.656L10.7563 117.655L10.5859 117.653L10.4167 117.652L10.249 117.651L10.0826 117.649L9.91748 117.648L9.75377 117.647L9.59139 117.645L9.4304 117.644L9.27077 117.643L9.11247 117.641L8.95555 117.64L8.79997 117.639L8.64578 117.638L8.49291 117.636L8.34143 117.635L8.19133 117.634L8.04257 117.633L7.89517 117.632L7.74915 117.63L7.60448 117.629L7.4612 117.628L7.31928 117.627L7.17871 117.626L7.03955 117.625L6.90172 117.623L6.76528 117.622L6.63022 117.621L6.49653 117.62L6.36421 117.619L6.23326 117.618L6.1037 117.617L5.9755 117.616L5.84867 117.615L5.72325 117.614L5.59919 117.613L5.47653 117.612L5.35523 117.611L5.23533 117.61L5.11679 117.609L4.99965 117.608L4.8839 117.607L4.76952 117.606L4.65653 117.605L4.54493 117.604L4.43472 117.604L4.32591 117.603L4.21848 117.602L4.11243 117.601L4.00778 117.6L3.90454 117.599L3.80265 117.598L3.70219 117.598L3.60313 117.597L3.50545 117.596L3.40915 117.595L3.31428 117.595L3.22081 117.594L3.12872 117.593L3.03803 117.592L2.94876 117.592L2.86087 117.591L2.77439 117.59L2.68931 117.589L2.60565 117.589L2.52338 117.588L2.44252 117.587L2.36307 117.587L2.28502 117.586L2.2084 117.585L2.13318 117.585L2.05937 117.584L1.98697 117.584L1.91597 117.583L1.8464 117.582L1.77824 117.582L1.71149 117.582L1.64615 117.581L1.58225 117.58L1.51973 117.58L1.45868 117.579L1.39899 117.579L1.34077 117.579L1.28395 117.578L1.22855 117.578L1.17458 117.577L1.12203 117.577L1.0709 117.576L1.0212 117.576L0.972922 117.576L0.926087 117.575L0.880679 117.575L0.83667 117.574L0.794108 117.574L0.752993 117.574L0.713276 117.573L0.675031 117.573L0.638186 117.573L0.602786 117.573L0.568829 117.572L0.536278 117.572L0.50519 117.572L0.47555 117.571L0.447314 117.571L0.420543 117.571H0.395196L0.371313 117.571L0.348856 117.57L0.327845 117.57L0.30826 117.57H0.290139L0.273464 117.57H0.258234L0.244449 117.57H0.232088L0.221216 117.569H0.211766H0.203784H0.197226L0.192157 117.569H0.188511H0.186332ZM0.183981 179.859C0.045099 179.682 0.0454008 179.681 0.0459617 179.681L0.0482699 179.679L0.0572651 179.671L0.0593792 179.669L0.0783846 179.652L0.0926868 179.639L0.119135 179.615L0.149185 179.589C0.173022 179.568 0.20098 179.543 0.233016 179.515C0.357358 179.406 0.543246 179.244 0.790097 179.033C1.28374 178.611 2.02114 177.993 2.99762 177.206C4.95056 175.633 7.85977 173.387 11.6876 170.692C19.3433 165.303 30.6738 158.119 45.3781 150.935C74.7869 136.567 117.692 122.2 171.683 122.2V122.663C117.765 122.663 74.9202 137.01 45.5569 151.356C30.8751 158.529 19.5638 165.701 11.9242 171.079C8.10446 173.769 5.20269 176.009 3.25655 177.577C2.28349 178.36 1.54935 178.976 1.05882 179.395C0.813566 179.605 0.629212 179.765 0.506358 179.873C0.44492 179.927 0.398861 179.968 0.368271 179.995C0.355975 180.006 0.346181 180.015 0.33889 180.022L0.33395 180.026L0.325494 180.034L0.323446 180.036C0.323446 180.036 0.323144 180.036 0.31279 180.023C0.298466 180.005 0.264576 179.962 0.183981 179.859ZM0.091738 153.715C0.0911772 153.715 0.0908754 153.715 0.183981 153.924C0.277066 154.133 0.277239 154.133 0.27767 154.133L0.279717 154.132L0.288195 154.127L0.322562 154.11C0.353195 154.094 0.399271 154.071 0.46073 154.04C0.511188 154.015 0.572 153.985 0.643145 153.95C0.686613 153.928 0.733943 153.905 0.785112 153.88C0.854208 153.846 0.930315 153.809 1.01343 153.768C1.50412 153.53 2.23845 153.18 3.21175 152.734C5.15832 151.843 8.06074 150.569 11.8813 149.04C19.5224 145.981 30.8362 141.902 45.5216 137.823C74.8922 129.665 117.749 121.506 171.683 121.506V121.042C117.708 121.042 74.8149 129.208 45.4135 137.375C30.7126 141.458 19.3846 145.542 11.7306 148.606C7.90352 150.137 4.99493 151.414 3.04243 152.308C2.0662 152.755 1.32899 153.107 0.835485 153.347C0.588742 153.466 0.402916 153.558 0.278617 153.62C0.243649 153.638 0.213556 153.653 0.188338 153.666C0.168729 153.676 0.152097 153.684 0.138399 153.691L0.10302 153.709L0.0940463 153.714L0.091738 153.715ZM0.183981 133.084C0.143706 132.856 0.143986 132.856 0.144503 132.856L0.146747 132.856L0.155591 132.854L0.190733 132.847C0.221884 132.84 0.268478 132.831 0.330455 132.819C0.454409 132.794 0.63989 132.758 0.886288 132.71C1.37906 132.615 2.11558 132.476 3.09105 132.298C5.04202 131.943 7.94901 131.437 11.7743 130.828C19.425 129.612 30.7491 127.991 45.4454 126.37C74.8382 123.127 117.72 119.885 171.683 119.885V120.348C117.736 120.348 74.8691 123.589 45.4896 126.83C30.7998 128.451 19.4821 130.071 11.8375 131.286C8.01524 131.894 5.11123 132.401 3.16312 132.755C2.18907 132.932 1.454 133.071 0.96263 133.166C0.814235 133.195 0.688061 133.219 0.584233 133.239C0.516173 133.253 0.45771 133.264 0.408914 133.274C0.347282 133.286 0.301033 133.296 0.270206 133.302L0.235604 133.309L0.227016 133.311L0.224902 133.311C0.224449 133.311 0.224236 133.311 0.183981 133.084Z" fill="url(#paint0_linear_801_14847)"/>
<defs>
<linearGradient id="paint0_linear_801_14847" x1="169.095" y1="88.1574" x2="3.32932" y2="88.1574" gradientUnits="userSpaceOnUse">
<stop offset="0.0182341" stop-color="#FD4B28" stop-opacity="0"/>
<stop offset="0.127609" stop-color="#FD4B28"/>
<stop offset="0.563305" stop-color="#FD4C28" stop-opacity="0.65"/>
<stop offset="0.943305" stop-color="#FD4C28" stop-opacity="0"/>
</linearGradient>
</defs>
</svg>
