<svg width="172" height="181" viewBox="0 0 172 181" fill="none" xmlns="http://www.w3.org/2000/svg">
<path fill-rule="evenodd" clip-rule="evenodd" d="M171.969 1.21517C171.969 1.21424 171.97 1.21355 171.785 1.09406C171.6 0.974577 171.6 0.974808 171.599 0.975734L171.597 0.979441L171.589 0.994493C171.581 1.00815 171.57 1.02853 171.554 1.05539C171.523 1.10958 171.477 1.19016 171.416 1.29691C171.293 1.51041 171.108 1.82741 170.862 2.24144C170.371 3.06904 169.637 4.28357 168.663 5.82993C166.716 8.92242 163.813 13.3415 159.992 18.6452C152.351 29.2525 141.038 43.3956 126.357 57.5384C96.9927 85.8258 54.167 114.096 0.285339 114.096V114.559C54.3135 114.559 97.2377 86.212 126.645 57.8829C141.35 43.7174 152.68 29.5524 160.333 18.9284C164.16 13.6164 167.069 9.18918 169.02 6.08928C169.996 4.53921 170.733 3.32121 171.226 2.49014C171.473 2.07472 171.658 1.75586 171.782 1.54074C171.844 1.4333 171.891 1.35179 171.922 1.29691C171.938 1.26936 171.95 1.24874 171.958 1.23485L171.966 1.2191L171.969 1.21517ZM171.948 35.2847C171.949 35.284 171.949 35.2838 171.785 35.1335C171.621 34.9834 171.62 34.9837 171.62 34.9841L171.618 34.9867L171.609 34.9973L171.594 35.0161L171.575 35.0402C171.562 35.0566 171.546 35.0763 171.527 35.0994L171.497 35.1365C171.479 35.159 171.459 35.1837 171.437 35.2108C171.314 35.3616 171.129 35.5857 170.884 35.8784C170.393 36.4636 169.659 37.3227 168.686 38.4163C166.739 40.6036 163.837 43.7297 160.017 47.4814C152.377 54.9852 141.066 64.9916 126.386 74.998C97.0242 95.0111 54.189 115.022 0.285339 115.022V115.485C54.2917 115.485 97.2062 95.4358 126.617 75.3889C141.322 65.3656 152.653 55.3418 160.308 47.823C164.136 44.0636 167.045 40.9304 168.998 38.7361C169.974 37.639 170.711 36.7766 171.205 36.1882C171.451 35.8939 171.637 35.6682 171.761 35.5158C171.824 35.4396 171.87 35.3817 171.902 35.3428C171.917 35.3234 171.929 35.3088 171.937 35.2988L171.946 35.2877L171.948 35.2847ZM171.785 58.7527C171.924 58.9298 171.923 58.9303 171.923 58.9307L171.92 58.9328L171.911 58.9409L171.888 58.9618L171.876 58.9724C171.845 59.0004 171.798 59.0419 171.736 59.0965C171.611 59.2058 171.426 59.3677 171.179 59.5789C170.685 60.0008 169.948 60.619 168.971 61.4054C167.018 62.9784 164.109 65.2245 160.281 67.9192C152.625 73.3088 141.295 80.4932 126.591 87.6769C97.1818 102.045 54.2766 116.411 0.285339 116.411V115.948C54.2041 115.948 97.0485 101.601 126.412 87.2555C141.094 80.0826 152.405 72.91 160.045 67.5321C163.864 64.8429 166.766 62.6026 168.712 61.0352C169.685 60.2513 170.419 59.6358 170.91 59.2165C171.155 59.0069 171.34 58.8462 171.462 58.7383C171.489 58.7151 171.512 58.6943 171.533 58.676C171.561 58.6517 171.583 58.6318 171.6 58.616C171.616 58.6026 171.627 58.5922 171.635 58.5855L171.643 58.5778L171.645 58.576C171.645 58.576 171.646 58.5758 171.65 58.5811C171.652 58.5836 171.655 58.5873 171.659 58.5929C171.667 58.6031 171.68 58.6193 171.701 58.6455L171.785 58.7527ZM171.877 84.6652C171.877 84.6652 171.877 84.6652 171.877 84.6648C171.877 84.6643 171.877 84.6634 171.876 84.6613C171.874 84.6573 171.871 84.6495 171.864 84.6333C171.851 84.6055 171.828 84.5534 171.785 84.4559C171.743 84.3614 171.72 84.3098 171.707 84.2815C171.701 84.2683 171.697 84.2602 171.695 84.2551C171.693 84.2503 171.692 84.2484 171.691 84.2477C171.691 84.2473 171.691 84.2473 171.691 84.2473L171.689 84.2484L171.681 84.2528L171.646 84.2702C171.616 84.2857 171.569 84.3088 171.508 84.3396C171.385 84.401 171.201 84.4925 170.955 84.6117C170.465 84.85 169.73 85.2001 168.757 85.6459C166.81 86.5374 163.908 87.8114 160.087 89.3404C152.446 92.3989 141.133 96.4776 126.447 100.557C97.0766 108.715 54.2201 116.874 0.285339 116.874V117.337C54.2606 117.337 97.1538 109.172 126.555 101.005C141.256 96.9217 152.584 92.8379 160.238 89.7744C164.065 88.2426 166.974 86.966 168.926 86.0719C169.903 85.6248 170.64 85.2733 171.133 85.0336C171.38 84.9137 171.566 84.8215 171.69 84.7595C171.752 84.7284 171.799 84.7048 171.83 84.6891L171.866 84.671L171.875 84.6664L171.877 84.6652ZM171.785 105.065C171.814 105.23 171.822 105.275 171.824 105.288C171.825 105.292 171.824 105.292 171.824 105.292L171.822 105.293L171.813 105.295L171.778 105.302C171.747 105.308 171.7 105.317 171.638 105.33L171.58 105.341L171.509 105.355C171.469 105.363 171.426 105.372 171.379 105.381C171.293 105.398 171.194 105.417 171.082 105.438C170.59 105.533 169.853 105.673 168.878 105.85C166.927 106.205 164.02 106.712 160.194 107.32C152.544 108.536 141.22 110.157 126.523 111.779C97.1305 115.021 54.2483 118.264 0.285339 118.264V117.801C54.2324 117.801 97.0997 114.559 126.479 111.318C141.169 109.698 152.487 108.077 160.131 106.862C163.954 106.254 166.858 105.748 168.806 105.394C169.78 105.216 170.515 105.077 171.006 104.983C171.252 104.935 171.437 104.899 171.56 104.874C171.621 104.862 171.668 104.853 171.699 104.847L171.733 104.84L171.742 104.838L171.744 104.837C171.744 104.837 171.744 104.837 171.745 104.842C171.746 104.846 171.747 104.855 171.75 104.871L171.757 104.908C171.763 104.941 171.772 104.991 171.785 105.065ZM171.782 117.569C171.783 117.569 171.783 117.569 171.785 117.801C171.786 118.032 171.786 118.032 171.786 118.032H171.783H171.78L171.775 118.032H171.768H171.76H171.751L171.74 118.033H171.728L171.714 118.033H171.699L171.682 118.033H171.664L171.644 118.033L171.623 118.034L171.601 118.034H171.577L171.551 118.034L171.525 118.034L171.496 118.034L171.467 118.035L171.436 118.035L171.403 118.035L171.369 118.036L171.334 118.036L171.297 118.036L171.259 118.037L171.219 118.037L171.178 118.037L171.135 118.037L171.091 118.038L171.046 118.038L170.999 118.039L170.951 118.039L170.901 118.039L170.85 118.04L170.797 118.04L170.743 118.041L170.688 118.041L170.631 118.042L170.573 118.042L170.513 118.043L170.452 118.043L170.39 118.044L170.326 118.044L170.261 118.044L170.194 118.045L170.126 118.046L170.056 118.046L169.985 118.047L169.913 118.047L169.839 118.048L169.764 118.049L169.687 118.049L169.609 118.05L169.529 118.05L169.449 118.051L169.366 118.052L169.283 118.053L169.198 118.053L169.111 118.054L169.023 118.055L168.934 118.055L168.843 118.056L168.751 118.057L168.658 118.058L168.563 118.058L168.467 118.059L168.369 118.06L168.27 118.061L168.169 118.062L168.067 118.062L167.964 118.063L167.86 118.064L167.754 118.065L167.646 118.066L167.537 118.067L167.427 118.068L167.315 118.069L167.202 118.069L167.088 118.07L166.972 118.071L166.855 118.072L166.737 118.073L166.617 118.074L166.495 118.075L166.373 118.076L166.249 118.077L166.123 118.078L165.996 118.079L165.868 118.08L165.739 118.081L165.608 118.082L165.475 118.083L165.342 118.085L165.207 118.085L165.07 118.087L164.932 118.088L164.793 118.089L164.653 118.09L164.511 118.091L164.368 118.092L164.223 118.094L164.077 118.095L163.929 118.096L163.781 118.097L163.631 118.098L163.479 118.1L163.326 118.101L163.172 118.102L163.016 118.103L162.86 118.104L162.701 118.106L162.542 118.107L162.381 118.108L162.218 118.11L162.055 118.111L161.889 118.112L161.723 118.114L161.555 118.115L161.386 118.116L161.216 118.118L161.044 118.119L160.871 118.121L160.696 118.122L160.52 118.123L160.343 118.125L160.164 118.126L159.985 118.128L159.803 118.129L159.621 118.131L159.437 118.132L159.251 118.134L159.065 118.135L158.877 118.137L158.688 118.138L158.497 118.14L158.305 118.141L158.112 118.143L157.917 118.144L157.721 118.146L157.524 118.148L157.325 118.149L157.125 118.151L156.924 118.153L156.721 118.154L156.517 118.156L156.312 118.158L156.105 118.159L155.897 118.161L155.688 118.163L155.477 118.164L155.265 118.166L155.052 118.168L154.837 118.169L154.622 118.171L154.404 118.173L154.186 118.175L153.966 118.177L153.745 118.178L153.522 118.18L153.298 118.182L153.073 118.184L152.847 118.186L152.619 118.188L152.39 118.189L152.16 118.191L151.928 118.193L151.695 118.195L151.461 118.197L151.225 118.199L150.988 118.201L150.75 118.203L150.51 118.204L150.269 118.207L150.027 118.208L149.784 118.21L149.539 118.212L149.293 118.214L149.045 118.216L148.797 118.218L148.547 118.22L148.296 118.223L148.043 118.225L147.789 118.227L147.534 118.229L147.277 118.231L147.02 118.233L146.761 118.235L146.5 118.237L146.239 118.239L145.976 118.241L145.711 118.243L145.446 118.246L145.179 118.248L144.911 118.25L144.642 118.252L144.371 118.254L144.099 118.257L143.826 118.259L143.551 118.261L143.276 118.263L142.999 118.265L142.72 118.268L142.441 118.27L142.16 118.272L141.878 118.275L141.594 118.277L141.309 118.279L141.023 118.281L140.736 118.284L140.448 118.286L140.158 118.289L139.867 118.291L139.574 118.293L139.281 118.295L138.986 118.298L138.689 118.3L138.392 118.303L138.093 118.305L137.793 118.307L137.492 118.31L137.19 118.313L136.886 118.315L136.581 118.317L136.274 118.32L135.967 118.322L135.658 118.325L135.348 118.327L135.037 118.33L134.724 118.333L134.41 118.335L134.095 118.338L133.779 118.34L133.461 118.343L133.142 118.345L132.822 118.348L132.501 118.351L132.178 118.353L131.854 118.356L131.529 118.358L131.203 118.361L130.875 118.364L130.546 118.366L130.216 118.369L129.885 118.372L129.552 118.374L129.218 118.377L128.883 118.38L128.547 118.383L128.209 118.385L127.871 118.388L127.531 118.391L127.189 118.393L126.847 118.396L126.503 118.399L126.158 118.402L125.812 118.405L125.464 118.408L125.116 118.41L124.766 118.413L124.414 118.416L124.062 118.419L123.709 118.422L123.354 118.425L122.998 118.427L122.64 118.43L122.282 118.433L121.922 118.436L121.561 118.439L121.199 118.442L120.836 118.445L120.471 118.448L120.105 118.451L119.738 118.454L119.37 118.457L119 118.46L118.629 118.463L118.258 118.466L117.884 118.469L117.51 118.472L117.134 118.475L116.758 118.478L116.38 118.481L116 118.484L115.62 118.487L115.238 118.49L114.856 118.493L114.472 118.496L114.086 118.5L113.7 118.503L113.312 118.506L112.923 118.509L112.533 118.512L112.142 118.515L111.749 118.519L111.356 118.522L110.961 118.525L110.565 118.528L110.167 118.531L109.769 118.535L109.369 118.538L108.968 118.541L108.566 118.544L108.163 118.548L107.759 118.551L107.353 118.554L106.946 118.558L106.538 118.561L106.129 118.564L105.719 118.568L105.307 118.571L104.894 118.574L104.48 118.577L104.065 118.581L103.649 118.584L103.231 118.588L102.813 118.591L102.393 118.594L101.972 118.598L101.55 118.601L101.126 118.605L100.702 118.608L100.276 118.612L99.8488 118.615L99.4208 118.618L98.9915 118.622L98.561 118.625L98.1293 118.629L97.6966 118.632L97.2625 118.636L96.8274 118.64L96.3912 118.643L95.9537 118.646L95.515 118.65L95.0751 118.654L94.6342 118.657L94.1919 118.661L93.7486 118.664L93.3042 118.668L92.8586 118.672L92.4118 118.675L91.9637 118.679L91.5146 118.682L91.0644 118.686L90.6129 118.69L90.1603 118.694L89.7066 118.697L89.2517 118.701L88.7956 118.705L88.3383 118.708L87.8799 118.712L87.4204 118.716L86.9598 118.719L86.498 118.723L86.035 118.727L85.5708 118.731L85.1055 118.734L84.6391 118.738L84.1716 118.742L83.7029 118.746L83.233 118.75L82.7621 118.753L82.2899 118.757L81.8166 118.761L81.3422 118.765L80.8665 118.769L80.3898 118.773L79.912 118.776L79.4331 118.78L78.9529 118.784L78.4716 118.788L77.9892 118.792L77.5058 118.796L77.0211 118.8L76.5353 118.804L76.0484 118.808L75.5602 118.812L75.0712 118.816L74.5808 118.82L74.0894 118.824L73.5967 118.828L73.1031 118.832L72.6082 118.836L72.1123 118.84L71.6153 118.844L71.117 118.848L70.6178 118.852L70.1173 118.856L69.6157 118.86L69.1131 118.864L68.6092 118.868L68.1044 118.872L67.5983 118.876L67.0911 118.88L66.5829 118.885L66.0736 118.889L65.5632 118.893L65.0515 118.897L64.5387 118.901L64.0249 118.905L63.5099 118.909L62.9939 118.913L62.4768 118.918L61.9587 118.922L61.4392 118.926L60.9187 118.93L60.3971 118.935L59.8746 118.939L59.3506 118.943L58.8257 118.947L58.2998 118.952L57.7728 118.956L57.2445 118.96L56.7153 118.964L56.1849 118.969L55.6533 118.973L55.1209 118.977L54.5872 118.982L54.0524 118.986L53.5166 118.99L52.9797 118.995L52.4417 118.999L51.9023 119.003L51.3622 119.008L50.8209 119.012L50.2784 119.017L49.735 119.021L49.1905 119.025L48.6447 119.03L48.0981 119.034L47.5501 119.039L47.0011 119.043L46.4512 119.048L45.9001 119.052L45.348 119.057L44.7947 119.061L44.2405 119.065L43.685 119.07L43.1285 119.074L42.571 119.079L42.0123 119.083L41.4527 119.088L40.8919 119.093L40.3301 119.097L39.7671 119.102L39.2032 119.106L38.638 119.111L38.0719 119.115L37.5048 119.12L36.9364 119.125L36.3671 119.129L35.7967 119.134L35.2253 119.139L34.6527 119.143L34.0791 119.148L33.5044 119.152L32.9287 119.157L32.3521 119.162L31.7741 119.167L31.1951 119.171L30.6153 119.176L30.0343 119.18L29.4521 119.185L28.869 119.19L28.2848 119.195L27.6996 119.199L27.1134 119.204L26.526 119.209L25.9375 119.214L25.3482 119.218L24.7578 119.223L24.166 119.228L23.5734 119.233L22.98 119.238L22.3852 119.243L21.7894 119.247L21.1927 119.252L20.595 119.257L19.9961 119.262L19.3962 119.267L18.7952 119.272L18.1931 119.277L17.5902 119.281L16.9861 119.286L16.381 119.291L15.7749 119.296L15.1676 119.301L14.5595 119.306L13.9503 119.311L13.34 119.316L12.7286 119.321L12.1164 119.326L11.5029 119.331L10.8885 119.336L10.2731 119.341L9.65675 119.346L9.03914 119.351L8.42065 119.356L7.80112 119.361L7.18068 119.366L6.55898 119.371L5.9364 119.376L5.31274 119.381L4.68802 119.386L4.06242 119.391L3.43575 119.396L2.808 119.401L2.17938 119.406L1.54947 119.411L0.918686 119.416L0.287064 119.422L0.283813 118.958L0.915466 118.953L1.54623 118.948L2.17615 118.943L2.80476 118.938L3.43251 118.933L4.05919 118.928L4.68477 118.923L5.30951 118.918L5.93317 118.913L6.55574 118.908L7.17723 118.903L7.79787 118.898L8.41743 118.893L9.0359 118.888L9.65352 118.882L10.2698 118.878L10.8853 118.873L11.4997 118.868L12.1132 118.863L12.7254 118.858L13.3368 118.853L13.947 118.848L14.5562 118.843L15.1644 118.838L15.7716 118.833L16.3778 118.828L16.9829 118.823L17.5869 118.818L18.1899 118.813L18.7919 118.809L19.393 118.804L19.9929 118.799L20.5917 118.794L21.1895 118.789L21.7862 118.784L22.382 118.779L22.9767 118.775L23.5702 118.77L24.1628 118.765L24.7543 118.76L25.345 118.755L25.9343 118.751L26.5228 118.746L27.11 118.741L27.6963 118.736L28.2816 118.732L28.8658 118.727L29.4489 118.722L30.0311 118.717L30.612 118.713L31.1919 118.708L31.7709 118.703L32.3488 118.699L32.9254 118.694L33.5012 118.689L34.0759 118.685L34.6495 118.68L35.222 118.675L35.7935 118.671L36.3638 118.666L36.9331 118.662L37.5016 118.657L38.0687 118.652L38.6348 118.648L39.2 118.643L39.7638 118.639L40.3269 118.634L40.8886 118.63L41.4495 118.625L42.0091 118.62L42.5678 118.616L43.1252 118.611L43.6818 118.607L44.2371 118.602L44.7915 118.598L45.3448 118.593L45.8968 118.589L46.448 118.584L46.9979 118.58L47.5469 118.576L48.0946 118.571L48.6415 118.567L49.187 118.562L49.7317 118.558L50.2751 118.553L50.8177 118.549L51.3589 118.545L51.8991 118.54L52.4382 118.536L52.9764 118.532L53.5134 118.527L54.0492 118.523L54.584 118.518L55.1175 118.514L55.6501 118.51L56.1816 118.506L56.7121 118.501L57.2412 118.497L57.7696 118.493L58.2966 118.489L58.8225 118.484L59.3474 118.48L59.8711 118.476L60.3938 118.471L60.9154 118.467L61.436 118.463L61.9552 118.459L62.4736 118.455L62.9907 118.45L63.5067 118.446L64.0216 118.442L64.5355 118.438L65.0482 118.434L65.5597 118.43L66.0703 118.426L66.5797 118.421L67.0879 118.417L67.5951 118.413L68.1012 118.409L68.6059 118.405L69.1099 118.401L69.6125 118.397L70.1141 118.393L70.6145 118.389L71.1137 118.385L71.612 118.381L72.1091 118.377L72.605 118.373L73.0999 118.369L73.5935 118.364L74.0862 118.361L74.5776 118.357L75.0679 118.353L75.557 118.349L76.0451 118.345L76.532 118.341L77.0178 118.337L77.5026 118.333L77.986 118.329L78.4684 118.325L78.9496 118.321L79.4298 118.317L79.9087 118.313L80.3866 118.31L80.8633 118.306L81.339 118.302L81.8133 118.298L82.2866 118.294L82.7586 118.29L83.2298 118.286L83.6996 118.283L84.1684 118.279L84.6359 118.275L85.1022 118.271L85.5676 118.267L86.0318 118.264L86.4947 118.26L86.9566 118.256L87.4172 118.253L87.8767 118.249L88.3351 118.245L88.7924 118.242L89.2484 118.238L89.7034 118.234L90.1571 118.23L90.6096 118.227L91.0612 118.223L91.5114 118.219L91.9605 118.216L92.4086 118.212L92.8553 118.209L93.301 118.205L93.7454 118.201L94.1887 118.198L94.6309 118.194L95.0719 118.191L95.5117 118.187L95.9503 118.183L96.3878 118.18L96.8242 118.176L97.2593 118.173L97.6933 118.169L98.1261 118.166L98.5577 118.162L98.9883 118.159L99.4176 118.155L99.8456 118.152L100.272 118.148L100.698 118.145L101.123 118.141L101.546 118.138L101.969 118.135L102.39 118.131L102.809 118.128L103.228 118.125L103.646 118.121L104.062 118.118L104.477 118.114L104.891 118.111L105.304 118.108L105.715 118.104L106.126 118.101L106.535 118.098L106.943 118.094L107.35 118.091L107.755 118.088L108.16 118.085L108.563 118.081L108.965 118.078L109.366 118.075L109.766 118.072L110.164 118.068L110.562 118.065L110.958 118.062L111.352 118.059L111.746 118.056L112.139 118.052L112.53 118.049L112.92 118.046L113.309 118.043L113.696 118.04L114.083 118.037L114.468 118.033L114.852 118.03L115.235 118.027L115.617 118.024L115.997 118.021L116.376 118.018L116.754 118.015L117.131 118.012L117.507 118.009L117.881 118.006L118.254 118.003L118.626 118L118.997 117.997L119.367 117.994L119.735 117.991L120.102 117.988L120.468 117.985L120.832 117.982L121.196 117.979L121.558 117.976L121.919 117.973L122.279 117.97L122.637 117.967L122.994 117.964L123.35 117.962L123.705 117.959L124.059 117.956L124.411 117.953L124.762 117.95L125.112 117.947L125.461 117.944L125.808 117.942L126.155 117.939L126.5 117.936L126.843 117.933L127.186 117.93L127.527 117.928L127.867 117.925L128.206 117.922L128.544 117.919L128.88 117.917L129.215 117.914L129.549 117.911L129.881 117.909L130.213 117.906L130.543 117.903L130.872 117.9L131.199 117.898L131.526 117.895L131.851 117.893L132.175 117.89L132.497 117.887L132.819 117.885L133.139 117.882L133.458 117.88L133.775 117.877L134.092 117.874L134.407 117.872L134.721 117.869L135.033 117.867L135.345 117.864L135.655 117.862L135.964 117.859L136.271 117.857L136.578 117.854L136.883 117.852L137.186 117.849L137.489 117.847L137.79 117.844L138.09 117.842L138.389 117.84L138.686 117.837L138.982 117.835L139.277 117.832L139.571 117.83L139.863 117.828L140.154 117.825L140.444 117.823L140.733 117.821L141.02 117.818L141.306 117.816L141.591 117.814L141.874 117.811L142.157 117.809L142.437 117.807L142.717 117.805L142.995 117.802L143.272 117.8L143.548 117.798L143.823 117.796L144.096 117.793L144.368 117.791L144.638 117.789L144.908 117.787L145.176 117.785L145.443 117.783L145.708 117.78L145.972 117.778L146.235 117.776L146.497 117.774L146.757 117.772L147.016 117.77L147.274 117.768L147.531 117.766L147.786 117.764L148.04 117.761L148.292 117.759L148.543 117.757L148.793 117.755L149.042 117.753L149.29 117.751L149.536 117.749L149.78 117.747L150.024 117.745L150.266 117.743L150.507 117.742L150.746 117.739L150.985 117.738L151.222 117.736L151.457 117.734L151.692 117.732L151.925 117.73L152.156 117.728L152.387 117.726L152.616 117.724L152.844 117.723L153.07 117.721L153.295 117.719L153.519 117.717L153.741 117.715L153.963 117.714L154.183 117.712L154.401 117.71L154.618 117.708L154.834 117.706L155.049 117.705L155.262 117.703L155.474 117.701L155.685 117.699L155.894 117.698L156.102 117.696L156.308 117.695L156.514 117.693L156.718 117.691L156.92 117.689L157.122 117.688L157.322 117.686L157.52 117.685L157.718 117.683L157.914 117.681L158.108 117.68L158.302 117.678L158.494 117.677L158.684 117.675L158.874 117.674L159.062 117.672L159.248 117.671L159.433 117.669L159.617 117.668L159.8 117.666L159.981 117.665L160.161 117.663L160.34 117.662L160.517 117.66L160.693 117.659L160.867 117.658L161.041 117.656L161.212 117.655L161.383 117.653L161.552 117.652L161.72 117.651L161.886 117.649L162.051 117.648L162.215 117.647L162.377 117.645L162.538 117.644L162.698 117.643L162.856 117.641L163.013 117.64L163.169 117.639L163.323 117.638L163.476 117.636L163.627 117.635L163.777 117.634L163.926 117.633L164.074 117.632L164.22 117.63L164.364 117.629L164.508 117.628L164.649 117.627L164.79 117.626L164.929 117.625L165.067 117.623L165.203 117.622L165.339 117.621L165.472 117.62L165.605 117.619L165.735 117.618L165.865 117.617L165.993 117.616L166.12 117.615L166.245 117.614L166.37 117.613L166.492 117.612L166.614 117.611L166.733 117.61L166.852 117.609L166.969 117.608L167.085 117.607L167.199 117.606L167.312 117.605L167.424 117.604L167.534 117.604L167.643 117.603L167.75 117.602L167.856 117.601L167.961 117.6L168.064 117.599L168.166 117.598L168.267 117.598L168.366 117.597L168.463 117.596L168.56 117.595L168.654 117.595L168.748 117.594L168.84 117.593L168.931 117.592L169.02 117.592L169.108 117.591L169.194 117.59L169.279 117.589L169.363 117.589L169.445 117.588L169.526 117.587L169.606 117.587L169.684 117.586L169.76 117.585L169.836 117.585L169.909 117.584L169.982 117.584L170.053 117.583L170.122 117.582L170.191 117.582L170.257 117.582L170.323 117.581L170.387 117.58L170.449 117.58L170.51 117.579L170.57 117.579L170.628 117.579L170.685 117.578L170.74 117.578L170.794 117.577L170.847 117.577L170.898 117.576L170.948 117.576L170.996 117.576L171.043 117.575L171.088 117.575L171.132 117.574L171.175 117.574L171.216 117.574L171.255 117.573L171.294 117.573L171.331 117.573L171.366 117.573L171.4 117.572L171.432 117.572L171.464 117.572L171.493 117.571L171.521 117.571L171.548 117.571H171.574L171.597 117.571L171.62 117.57L171.641 117.57L171.66 117.57H171.679L171.695 117.57H171.711L171.724 117.57H171.737L171.748 117.569H171.757H171.765H171.772L171.777 117.569H171.78H171.782ZM171.785 179.859C171.924 179.682 171.923 179.681 171.923 179.681L171.92 179.679L171.911 179.671L171.909 179.669L171.89 179.652L171.876 179.639L171.85 179.615L171.82 179.589C171.796 179.568 171.768 179.543 171.736 179.515C171.611 179.406 171.426 179.244 171.179 179.033C170.685 178.611 169.948 177.993 168.971 177.206C167.018 175.633 164.109 173.387 160.281 170.692C152.625 165.303 141.295 158.119 126.591 150.935C97.1818 136.567 54.2766 122.2 0.285339 122.2V122.663C54.2041 122.663 97.0485 137.01 126.412 151.356C141.094 158.529 152.405 165.701 160.045 171.079C163.864 173.769 166.766 176.009 168.712 177.577C169.685 178.36 170.419 178.976 170.91 179.395C171.155 179.605 171.34 179.765 171.462 179.873C171.524 179.927 171.57 179.968 171.6 179.995C171.613 180.006 171.623 180.015 171.63 180.022L171.635 180.026L171.643 180.034L171.645 180.036C171.645 180.036 171.646 180.036 171.656 180.023C171.67 180.005 171.704 179.962 171.785 179.859ZM171.877 153.715C171.878 153.715 171.878 153.715 171.785 153.924C171.692 154.133 171.692 154.133 171.691 154.133L171.689 154.132L171.681 154.127L171.646 154.11C171.616 154.094 171.569 154.071 171.508 154.04C171.458 154.015 171.397 153.985 171.326 153.95C171.282 153.928 171.235 153.905 171.184 153.88C171.115 153.846 171.038 153.809 170.955 153.768C170.465 153.53 169.73 153.18 168.757 152.734C166.81 151.843 163.908 150.569 160.087 149.04C152.446 145.981 141.133 141.902 126.447 137.823C97.0766 129.665 54.2201 121.506 0.285339 121.506V121.042C54.2606 121.042 97.1538 129.208 126.555 137.375C141.256 141.458 152.584 145.542 160.238 148.606C164.065 150.137 166.974 151.414 168.926 152.308C169.903 152.755 170.64 153.107 171.133 153.347C171.38 153.466 171.566 153.558 171.69 153.62C171.725 153.638 171.755 153.653 171.78 153.666C171.8 153.676 171.817 153.684 171.83 153.691L171.866 153.709L171.875 153.714L171.877 153.715ZM171.785 133.084C171.825 132.856 171.825 132.856 171.824 132.856L171.822 132.856L171.813 132.854L171.778 132.847C171.747 132.84 171.7 132.831 171.638 132.819C171.514 132.794 171.329 132.758 171.082 132.71C170.59 132.615 169.853 132.476 168.878 132.298C166.927 131.943 164.02 131.437 160.194 130.828C152.544 129.612 141.22 127.991 126.523 126.37C97.1305 123.127 54.2483 119.885 0.285339 119.885V120.348C54.2324 120.348 97.0997 123.589 126.479 126.83C141.169 128.451 152.487 130.071 160.131 131.286C163.954 131.894 166.858 132.401 168.806 132.755C169.78 132.932 170.515 133.071 171.006 133.166C171.155 133.195 171.281 133.219 171.385 133.239C171.453 133.253 171.511 133.264 171.56 133.274C171.621 133.286 171.668 133.296 171.699 133.302L171.733 133.309L171.742 133.311L171.744 133.311C171.744 133.311 171.745 133.311 171.785 133.084Z" fill="url(#paint0_linear_801_14846)"/>
<defs>
<linearGradient id="paint0_linear_801_14846" x1="2.87376" y1="88.1574" x2="168.639" y2="88.1574" gradientUnits="userSpaceOnUse">
<stop offset="0.0182341" stop-color="#FD4B28" stop-opacity="0"/>
<stop offset="0.127609" stop-color="#FD4B28"/>
<stop offset="0.563305" stop-color="#FD4C28" stop-opacity="0.65"/>
<stop offset="0.943305" stop-color="#FD4C28" stop-opacity="0"/>
</linearGradient>
</defs>
</svg>
